<svg id="Layer_1" height="512" viewBox="0 0 256 256" width="512" xmlns="http://www.w3.org/2000/svg"><g><path d="m32.035 209.711c-7.535 0-13.665-6.13-13.665-13.665v-123.776c0-7.535 6.13-13.665 13.665-13.665h191.931c7.535 0 13.665 6.13 13.665 13.665v123.776c0 7.535-6.13 13.665-13.665 13.665z" fill="#cecece"/><g><path d="m223.965 58.606h-14.667c7.534 0 13.665 6.13 13.665 13.665v123.776c0 7.534-6.13 13.665-13.665 13.665h14.667c7.535 0 13.665-6.13 13.665-13.665v-123.777c0-7.534-6.13-13.664-13.665-13.664z" fill="#e2e2e2"/></g><g><path d="m32.035 58.606h14.667c-7.534 0-13.665 6.13-13.665 13.665v123.776c0 7.534 6.13 13.665 13.665 13.665h-14.667c-7.535 0-13.665-6.13-13.665-13.665v-123.777c0-7.534 6.13-13.664 13.665-13.664z" fill="#afafaf"/></g><path d="m229.221 72.294v123.728c0 2.916-2.364 5.28-5.28 5.28h-191.882c-2.916 0-5.28-2.364-5.28-5.28v-123.728c0-2.916 2.364-5.28 5.28-5.28h191.882c2.916 0 5.28 2.364 5.28 5.28z" fill="#63bce7"/><g><path d="m223.941 67.014h-14.667c2.916 0 5.28 2.364 5.28 5.28v123.728c0 2.916-2.364 5.28-5.28 5.28h14.667c2.916 0 5.28-2.364 5.28-5.28v-123.728c0-2.916-2.364-5.28-5.28-5.28z" fill="#63e2e7"/></g><g><path d="m32.059 67.014h14.667c-2.916 0-5.28 2.364-5.28 5.28v123.728c0 2.916 2.364 5.28 5.28 5.28h-14.667c-2.916 0-5.28-2.364-5.28-5.28v-123.728c0-2.916 2.364-5.28 5.28-5.28z" fill="#6377e7"/></g><path d="m128 209.711h-119.333l3.053 7.024c2.751 6.329 8.995 10.423 15.896 10.423h100.384 100.385c6.901 0 13.145-4.094 15.896-10.423l3.053-7.024z" fill="#cecece"/><g><path d="m232.667 209.711-3.053 7.024c-2.751 6.329-8.995 10.423-15.896 10.423h14.667c6.901 0 13.145-4.094 15.896-10.423l3.053-7.024z" fill="#e2e2e2"/></g><g><path d="m23.333 209.711 3.053 7.024c2.751 6.329 8.995 10.423 15.896 10.423h-14.667c-6.901 0-13.145-4.094-15.896-10.423l-3.053-7.024z" fill="#afafaf"/></g><path d="m82.442 209.711 4.22 5.388c1.649 2.106 4.175 3.336 6.85 3.336h68.975c2.675 0 5.201-1.23 6.85-3.336l4.221-5.388z" fill="#707070"/><path d="m194.957 47.947-30.079-30.078h-103.835v183.433h133.914z" fill="#cecece"/><g><path d="m164.878 17.869h-14.667l30.079 30.078v153.355h14.667v-153.355z" fill="#e2e2e2"/></g><g><path d="m61.043 17.869h14.667v183.434h-14.667z" fill="#afafaf"/></g><path d="m83.338 73.043h20v57.178h-20z" fill="#f46275"/><path d="m118 62.976h20v67.245h-20z" fill="#f8af23"/><path d="m152.662 56.982h20v73.238h-20z" fill="#63bce7"/><g><circle cx="194.957" cy="105.951" fill="#f8af23" r="34.01"/><circle cx="194.957" cy="105.951" fill="#cecece" r="24.269"/><path d="m194.957 201.302c-5.406 0-9.789-4.383-9.789-9.789v-26.618c0-5.406 4.383-9.789 9.789-9.789 5.406 0 9.789 4.383 9.789 9.789v26.618c-.001 5.407-4.383 9.789-9.789 9.789z" fill="#f46275"/></g><g><path d="m202.193 94.905-11.256 12.849-3.689-2.98c-1.643-1.326-4.05-1.073-5.377.564-1.329 1.634-1.077 4.034.563 5.36l9.416 7.603 16.103-18.381c1.389-1.585 1.226-3.994-.366-5.378-1.588-1.383-4.007-1.222-5.394.363z" fill="#f8af23"/><g fill="#3f3679"><path d="m245.656 217.333 3.053-7.023c.202-.464.156-.998-.121-1.421-.277-.422-.749-.677-1.254-.677h-14.352c3.722-2.766 6.149-7.182 6.149-12.165v-123.776c0-8.362-6.803-15.165-15.165-15.165h-27.509v-9.158c0-.398-.158-.779-.439-1.061l-30.079-30.079c-.281-.281-.663-.439-1.061-.439h-103.835c-.829 0-1.5.671-1.5 1.5v39.237h-27.508c-8.362 0-15.165 6.803-15.165 15.165v123.776c0 4.983 2.427 9.399 6.149 12.165h-14.352c-.505 0-.977.255-1.254.678-.277.422-.323.957-.121 1.42l3.053 7.023c1.517 3.491 4.013 6.351 7.081 8.326h-8.106c-.829 0-1.5.671-1.5 1.5s.671 1.5 1.5 1.5h18.295 200.77 18.295c.829 0 1.5-.671 1.5-1.5s-.671-1.5-1.5-1.5h-8.105c3.068-1.975 5.564-4.835 7.081-8.326zm-58.988-25.819v-26.618c0-4.57 3.718-8.289 8.289-8.289s8.289 3.718 8.289 8.289v26.618c0 4.57-3.718 8.289-8.289 8.289-4.571-.001-8.289-3.719-8.289-8.289zm-15.506-111.897c-7.19 6.503-11.715 15.899-11.715 26.334 0 8.659 3.119 16.6 8.288 22.77h-13.572v-70.239h17v21.135zm-8.716 26.334c0-17.926 14.584-32.51 32.51-32.51s32.51 14.584 32.51 32.51-14.584 32.51-32.51 32.51-32.51-14.584-32.51-32.51zm3.932-84.461 24.958 24.958h-24.958zm39.868 170.024v-26.618c0-5.715-4.273-10.44-9.789-11.177v-12.295c14.088-.589 26.079-9.419 31.265-21.788v76.387c0 2.084-1.696 3.78-3.78 3.78h-21.347c2.238-2.065 3.651-5.012 3.651-8.289zm21.475-99.247c-5.185-12.369-17.177-21.199-31.265-21.788v-1.965h27.484c2.084 0 3.78 1.696 3.78 3.78v19.973zm-165.178-72.898h100.834v28.579c0 .829.671 1.5 1.5 1.5h28.579v21.032c-7.187.3-13.824 2.747-19.295 6.714v-20.212c0-.829-.671-1.5-1.5-1.5h-20c-.829 0-1.5.671-1.5 1.5v73.238c0 .829.671 1.5 1.5 1.5h17.902c6.028 5.709 14.045 9.333 22.893 9.703v12.295c-5.516.737-9.789 5.462-9.789 11.177v26.618c0 3.278 1.413 6.224 3.651 8.289h-124.775zm-30.484 180.433c-2.084 0-3.78-1.696-3.78-3.78v-123.728c0-2.084 1.696-3.78 3.78-3.78h27.484v131.288zm-12.189-3.755v-123.776c0-6.708 5.457-12.165 12.165-12.165h27.509v5.409h-27.485c-3.739 0-6.78 3.042-6.78 6.78v123.728c0 3.738 3.042 6.78 6.78 6.78h28.984 133.913 28.984c3.739 0 6.78-3.042 6.78-6.78v-123.729c0-3.739-3.042-6.78-6.78-6.78h-27.484v-5.409h27.509c6.708 0 12.165 5.457 12.165 12.165v123.776c0 6.708-5.457 12.165-12.165 12.165h-50.407-91.116-50.407c-6.708 0-12.165-5.457-12.165-12.164zm150.608 15.164-2.321 2.963c-1.375 1.754-3.441 2.76-5.669 2.76h-68.975c-2.229 0-4.295-1.006-5.669-2.76l-2.321-2.963zm57.907 14.448h-200.77c-4.787 0-9.22-2.157-12.18-5.724h29.14c.829 0 1.5-.671 1.5-1.5s-.671-1.5-1.5-1.5h-31.097c-.132-.263-.264-.526-.383-.798l-2.141-4.925h21.081 49.677l3.77 4.813c1.947 2.485 4.874 3.911 8.031 3.911h68.975c3.157 0 6.084-1.425 8.031-3.911l3.77-4.813h49.677 21.081l-2.141 4.925c-.118.272-.25.535-.383.798h-31.098c-.829 0-1.5.671-1.5 1.5s.671 1.5 1.5 1.5h29.141c-2.961 3.567-7.394 5.724-12.181 5.724z"/><path d="m65.22 216.935h-10.375c-.829 0-1.5.671-1.5 1.5s.671 1.5 1.5 1.5h10.375c.829 0 1.5-.671 1.5-1.5s-.672-1.5-1.5-1.5z"/><path d="m201.155 216.935h-10.375c-.829 0-1.5.671-1.5 1.5s.671 1.5 1.5 1.5h10.375c.829 0 1.5-.671 1.5-1.5s-.671-1.5-1.5-1.5z"/><path d="m27.323 236.631h-18.003c-.829 0-1.5.671-1.5 1.5s.671 1.5 1.5 1.5h18.003c.829 0 1.5-.671 1.5-1.5s-.671-1.5-1.5-1.5z"/><path d="m246.68 236.631h-18.003c-.829 0-1.5.671-1.5 1.5s.671 1.5 1.5 1.5h18.003c.829 0 1.5-.671 1.5-1.5s-.671-1.5-1.5-1.5z"/><path d="m218.479 236.631h-180.958c-.829 0-1.5.671-1.5 1.5s.671 1.5 1.5 1.5h180.959c.829 0 1.5-.671 1.5-1.5s-.672-1.5-1.501-1.5z"/><path d="m83.338 131.721h20c.829 0 1.5-.671 1.5-1.5v-57.179c0-.829-.671-1.5-1.5-1.5h-20c-.829 0-1.5.671-1.5 1.5v57.178c0 .829.672 1.501 1.5 1.501zm1.5-57.179h17v54.178h-17z"/><path d="m118 131.721h20c.829 0 1.5-.671 1.5-1.5v-67.245c0-.829-.671-1.5-1.5-1.5h-20c-.829 0-1.5.671-1.5 1.5v67.245c0 .828.671 1.5 1.5 1.5zm1.5-67.245h17v64.245h-17z"/><path d="m220.726 105.951c0-14.209-11.56-25.77-25.77-25.77s-25.77 11.56-25.77 25.77 11.56 25.77 25.77 25.77 25.77-11.56 25.77-25.77zm-48.539 0c0-12.555 10.214-22.77 22.77-22.77s22.77 10.214 22.77 22.77-10.214 22.77-22.77 22.77-22.77-10.215-22.77-22.77z"/><path d="m172.662 147.91h-89.324c-.829 0-1.5.671-1.5 1.5s.671 1.5 1.5 1.5h89.323c.829 0 1.5-.671 1.5-1.5s-.671-1.5-1.499-1.5z"/><path d="m172.662 159.749h-89.324c-.829 0-1.5.671-1.5 1.5s.671 1.5 1.5 1.5h89.323c.829 0 1.5-.671 1.5-1.5s-.671-1.5-1.499-1.5z"/><path d="m172.662 171.588h-89.324c-.829 0-1.5.671-1.5 1.5s.671 1.5 1.5 1.5h89.323c.829 0 1.5-.671 1.5-1.5s-.671-1.5-1.499-1.5z"/><path d="m172.662 183.427h-89.324c-.829 0-1.5.671-1.5 1.5s.671 1.5 1.5 1.5h89.323c.829 0 1.5-.671 1.5-1.5s-.671-1.5-1.499-1.5z"/><path d="m210.384 97.055c-.096-1.417-.74-2.711-1.813-3.645-2.21-1.925-5.579-1.697-7.507.506l-10.307 11.765-2.569-2.075c-2.282-1.842-5.639-1.489-7.482.784-.896 1.101-1.308 2.484-1.161 3.896.147 1.413.838 2.684 1.945 3.579l9.416 7.602c.277.224.61.333.942.333.418 0 .833-.174 1.129-.512l16.104-18.38c.936-1.068 1.399-2.437 1.303-3.853zm-3.56 1.877-15.154 17.296-8.294-6.696c-.482-.39-.783-.942-.847-1.557-.064-.612.115-1.212.505-1.693.458-.564 1.129-.857 1.807-.857.514 0 1.032.169 1.462.516l3.689 2.98c.626.505 1.54.427 2.071-.179l11.256-12.849c.842-.963 2.314-1.061 3.28-.22.467.407.747.969.789 1.585.045.615-.157 1.209-.564 1.674z"/></g></g></g></svg>