<svg id="Capa_1" data-name="Capa 1" xmlns="http://www.w3.org/2000/svg" viewBox="0 0 821.98 173.59"><defs><style>.cls-1{opacity:0.93;}.cls-2{fill:#19338f;}.cls-3{fill:#18a6bb;}.cls-4{fill:#9bc9e1;}.cls-5{fill:#160a66;}.cls-6{fill:#150a5e;}.cls-7{fill:#a8a7a3;}.cls-8{fill:#999;}.cls-9{fill:#f3165e;}.cls-10{fill:#f48074;}.cls-11{fill:#ecb528;}.cls-12{fill:#99b4cc;}.cls-13{fill:#d4e0e3;}.cls-14{fill:#7ea4c3;}.cls-15{fill:#f8cb5b;}.cls-16{fill:#f8b85b;}.cls-17{fill:#595a66;}.cls-18{fill:#50515c;}.cls-19{fill:#b0c4d4;}.cls-20{fill:#218fbf;}</style></defs><title>apatado</title><g class="cls-1"><path class="cls-2" d="M71.91,121.13V82.58L41,63.31,10.06,82.58v38.55L41,140.4Z" transform="translate(-10.06 -5.35)"/><path class="cls-3" d="M41,101.85V140.4L10.06,121.13V82.58Z" transform="translate(-10.06 -5.35)"/><path class="cls-4" d="M102.83,140.4V101.85L71.91,82.58,41,101.85V140.4l30.93,19.27Z" transform="translate(-10.06 -5.35)"/><path class="cls-5" d="M71.91,121.13v38.54L41,140.4V101.85Z" transform="translate(-10.06 -5.35)"/><path class="cls-4" d="M133.75,159.67V121.13l30.92-19.28,30.93,19.28v38.54l-30.93,19.27Z" transform="translate(-10.06 -5.35)"/><path class="cls-2" d="M133.75,121.13v38.54l30.93,19.27V140.4h0Z" transform="translate(-10.06 -5.35)"/><path class="cls-3" d="M164.68,140.4v38.54l30.92-19.27V121.13Z" transform="translate(-10.06 -5.35)"/><path class="cls-2" d="M102.82,101.78V63.24L133.75,44l30.92,19.27v38.54l-30.92,19.28Z" transform="translate(-10.06 -5.35)"/><path class="cls-6" d="M102.83,63.24v38.54l30.92,19.28V82.51h0Z" transform="translate(-10.06 -5.35)"/><path class="cls-2" d="M102.82,63.17V24.62L133.75,5.35l30.92,19.27V63.17L133.75,82.44Z" transform="translate(-10.06 -5.35)"/><path class="cls-3" d="M102.83,24.62V63.17l30.92,19.27V43.9h0Z" transform="translate(-10.06 -5.35)"/><path class="cls-4" d="M133.75,43.9V82.44l30.92-19.27V24.62Z" transform="translate(-10.06 -5.35)"/><path class="cls-3" d="M133.76,159.67V121.13l-30.93-19.28L71.91,121.13v38.54l30.92,19.27Z" transform="translate(-10.06 -5.35)"/><path class="cls-4" d="M133.76,121.13v38.54l-30.93,19.27V140.4h0Z" transform="translate(-10.06 -5.35)"/><path class="cls-2" d="M102.83,140.4v38.54L71.91,159.67V121.13Z" transform="translate(-10.06 -5.35)"/></g><path class="cls-7" d="M203.71,133.43l7.74,15.82a11,11,0,0,0,1.84,2.87,4.27,4.27,0,0,0,2.25.92c2,.28,3,1.23,3,2.85q0,2.85-3.6,4.1c-2.41.83-6.33,1.25-11.79,1.25a92.43,92.43,0,0,1-13.71-.74,6.46,6.46,0,0,1-3.25-1.43,3.36,3.36,0,0,1-1.21-2.6,2.44,2.44,0,0,1,.64-1.81,5.86,5.86,0,0,1,2.35-1.19c1.28-.42,1.92-1.12,1.92-2.11q0-2.62-3.31-3.09a82.19,82.19,0,0,0-10-.47q-5.44,0-6.51.63a3.2,3.2,0,0,0-1.15,1.4,4.61,4.61,0,0,0-.49,2,1.34,1.34,0,0,0,.35,1.11,11.06,11.06,0,0,0,2.27.84c1.66.47,2.5,1.41,2.5,2.81q0,4.65-11.66,4.65a40,40,0,0,1-9.74-.86,3.49,3.49,0,0,1-2.87-3.59,2.6,2.6,0,0,1,.64-1.88,5.77,5.77,0,0,1,2.27-1.21,8.9,8.9,0,0,0,4-2.52,37.71,37.71,0,0,0,3.91-6.93l5.77-12.07a93,93,0,0,0,4.27-9.94,21.76,21.76,0,0,0,1.13-6.47,19.32,19.32,0,0,1,.43-4.67,5.83,5.83,0,0,1,1.74-2.55,9.89,9.89,0,0,1,7.2-2.74,12.28,12.28,0,0,1,7.89,3.09Q193.74,113.08,203.71,133.43Zm-28.47,4.92h8c1.47,0,2.21-.31,2.21-.94,0-.86-1-3-3.07-6.33a21,21,0,0,0-2.13-3.08,2.14,2.14,0,0,0-1.56-.78c-1,0-1.8.87-2.45,2.61-.11.24-.51,1.16-1.19,2.78a21.52,21.52,0,0,0-1.72,4.76C173.35,138,174,138.35,175.24,138.35Z" transform="translate(-10.06 -5.35)"/><path class="cls-7" d="M227,142V121.47c0-2.65-.2-4.34-.58-5s-1.42-1.3-3.11-1.74q-3.68-1-3.68-3.52a3,3,0,0,1,1.56-2.69,8.72,8.72,0,0,1,4.5-.94c.65,0,2.27,0,4.87.12H233q6.79,0,8-.1c.78,0,3.55-.27,8.33-.69,1.58-.15,3-.23,4.33-.23a26.29,26.29,0,0,1,12,2.62q9.12,4.53,9.12,14.37a15.21,15.21,0,0,1-6.38,12.78,23.66,23.66,0,0,1-14.56,4.49c-1.45,0-3.22-.09-5.32-.28-1.12-.07-1.82-.11-2.09-.11-.79,0-1.19.43-1.19,1.29V142l.29,6.41a5.25,5.25,0,0,0,.72,2.79,6.85,6.85,0,0,0,2.59,1.89c1.78.92,2.66,1.91,2.66,3,0,1.64-1.31,2.91-3.93,3.79a36.07,36.07,0,0,1-11.12,1.33q-15.15,0-15.14-5a2.4,2.4,0,0,1,.65-1.8,14.67,14.67,0,0,1,3.07-1.79,2.94,2.94,0,0,0,1.72-2.07Q226.87,149.25,227,142Zm18.45-25.51v13.28c0,1,.23,1.63.7,1.84a8,8,0,0,0,7.52-.9c1.78-1.38,2.66-3.7,2.66-6.95s-1-5.83-3.11-7.35a7.8,7.8,0,0,0-4.74-1.44C246.42,115,245.41,115.5,245.41,116.51Z" transform="translate(-10.06 -5.35)"/><path class="cls-7" d="M304.21,138c-1,0-1.7.3-2,.9a12.41,12.41,0,0,0-.43,4.18,35.16,35.16,0,0,0,.66,7.73,2.7,2.7,0,0,0,.61,1.21,6.61,6.61,0,0,0,1.56,1.06c1.63.85,2.45,2,2.45,3.39q0,2.58-3.42,3.66c-2.27.71-6.13,1.07-11.55,1.07q-15.15,0-15.14-5.47a2.35,2.35,0,0,1,.45-1.5,9,9,0,0,1,2-1.58,6,6,0,0,0,2.44-2.68,19.19,19.19,0,0,0,.88-5.33q.19-2.77.2-19.88a31.28,31.28,0,0,0-.57-7.39,4.42,4.42,0,0,0-2.46-2.85,7.85,7.85,0,0,1-2.41-1.5,2.57,2.57,0,0,1-.62-1.78,3.33,3.33,0,0,1,1.17-2.52,7.22,7.22,0,0,1,3.25-1.58,21.18,21.18,0,0,1,4.83-.43q1.35,0,6.75.39c.69.05,1.76.08,3.24.08q3.68,0,9.82-.47c2.59-.18,4.4-.28,5.44-.28q8.74,0,14.48,4a11.64,11.64,0,0,1,5.16,10.08,12.33,12.33,0,0,1-1.8,6.54,11.31,11.31,0,0,1-4.95,4.43c-.88.42-1.31.92-1.31,1.49,0,.75.67,1.36,2,1.83a11.86,11.86,0,0,1,6.3,4.5q2,3,2.87,9.21a6.8,6.8,0,0,0,1.06,3.34,7.45,7.45,0,0,0,3.23,1.47,2.44,2.44,0,0,1,1.31,1,2.84,2.84,0,0,1,.54,1.69,3.92,3.92,0,0,1-1,2.45,6.73,6.73,0,0,1-2.53,1.93,23.82,23.82,0,0,1-9.41,1.52q-8,0-11.42-4a15.63,15.63,0,0,1-2.64-4.53,78,78,0,0,1-2.56-8.52,11.81,11.81,0,0,0-2.39-5.23A5.82,5.82,0,0,0,304.21,138Zm-2.38-19.92-.45,9.1v.35a2.91,2.91,0,0,0,.43,1.87,2.35,2.35,0,0,0,1.74.47q3.6,0,5.24-1.77c1.09-1.19,1.64-3.08,1.64-5.69q0-7.53-5.61-7.54a3,3,0,0,0-2.25.71A3.94,3.94,0,0,0,301.83,118.08Z" transform="translate(-10.06 -5.35)"/><path class="cls-7" d="M351,107.1h21c4.25,0,7.35-.09,9.3-.25a31.06,31.06,0,0,0,5.71-1,5.24,5.24,0,0,1,1.35-.23,4.67,4.67,0,0,1,3.77,2.18,13.81,13.81,0,0,1,2.7,8.6,6.42,6.42,0,0,1-1.13,4,3.68,3.68,0,0,1-3.09,1.47,3.62,3.62,0,0,1-2.1-.53,9.92,9.92,0,0,1-2-2.37,8.63,8.63,0,0,0-4.56-3.49,32.83,32.83,0,0,0-9.06-.88q-4.71,0-5.73,1.6a5,5,0,0,0-.64,2.31q-.11,1.44-.1,7.38c0,1.56.27,2.53.82,2.91s2,.57,4.29.57A2.94,2.94,0,0,0,375,126.2a15.84,15.84,0,0,1,.6-3.1,3.2,3.2,0,0,1,1.12-1.47,3.06,3.06,0,0,1,2-.7,3.52,3.52,0,0,1,2.86,1.52,10.52,10.52,0,0,1,1.45,4,29.35,29.35,0,0,1,.6,6,22.25,22.25,0,0,1-2,10.12,3.57,3.57,0,0,1-3.35,2.15,2.32,2.32,0,0,1-1.93-.69,6.52,6.52,0,0,1-.82-2.83q-.6-4.41-5.4-4.41a2.7,2.7,0,0,0-2.51,1.11,8.69,8.69,0,0,0-.68,4.12c0,1.23.09,2.81.27,4.75a22.74,22.74,0,0,0,.55,3.84,2.51,2.51,0,0,0,2,1.63,24.91,24.91,0,0,0,5.66.44c4.09,0,7.18-.5,9.25-1.5a11.35,11.35,0,0,0,5.07-5.45,10.56,10.56,0,0,1,2.07-3,3.56,3.56,0,0,1,2.39-.78,3.49,3.49,0,0,1,2.85,1.43,5.58,5.58,0,0,1,1.12,3.57,17.83,17.83,0,0,1-1.27,5.86,27.84,27.84,0,0,1-3.11,6.25,7.87,7.87,0,0,1-1.55,1.78,2.57,2.57,0,0,1-1.56.45,16.55,16.55,0,0,1-2.25-.23,47.8,47.8,0,0,0-7-.59h-34.7a5.17,5.17,0,0,1-3.23-.88,2.93,2.93,0,0,1-1.15-2.48,2.33,2.33,0,0,1,.49-1.64,8.14,8.14,0,0,1,2.25-1.29,4.37,4.37,0,0,0,1.82-1.25,5.34,5.34,0,0,0,.93-2.19,75,75,0,0,0,1.34-15.9q0-15.07-2-19a2.75,2.75,0,0,0-.9-1.09,8.91,8.91,0,0,0-2.05-.75,2.85,2.85,0,0,1-2.33-3,3.46,3.46,0,0,1,.78-2.23,3.67,3.67,0,0,1,2.05-1.29A35.13,35.13,0,0,1,351,107.1Z" transform="translate(-10.06 -5.35)"/><path class="cls-7" d="M422.91,109l20.37,17c1.91,1.58,3.29,2.38,4.14,2.38q2.11,0,2.12-4.34a24.27,24.27,0,0,0-.61-6.72,4.57,4.57,0,0,0-2.58-2.69,6.19,6.19,0,0,1-2.25-1.58,3.42,3.42,0,0,1-.65-2.17c0-2.19,1.56-3.6,4.7-4.22a38.92,38.92,0,0,1,6.71-.39,34.72,34.72,0,0,1,8.55.7q3.76,1.09,3.77,4.14c0,1.7-1,3-3.07,3.83a6.69,6.69,0,0,0-1.68.9,3.14,3.14,0,0,0-.78,1.17q-1.09,2.58-1.14,9.77v12.73q0,2.92,0,8a37.78,37.78,0,0,1-.86,9.92c-.74,2.53-2.07,3.79-4,3.79a4.46,4.46,0,0,1-2.19-.51,22.79,22.79,0,0,1-3.05-2.34l-24.26-20.74c-1.69-1.46-3.1-2.19-4.21-2.19q-2.5,0-2.5,6.6a28.77,28.77,0,0,0,.63,7.42,4.74,4.74,0,0,0,2.6,2.93q2.74,1.29,2.74,3.36,0,5.43-12.23,5.43a21.14,21.14,0,0,1-8.57-1.39c-2-.92-3.05-2.23-3.05-3.92a3,3,0,0,1,.57-2,10.37,10.37,0,0,1,2.58-1.8,5,5,0,0,0,2.33-3.87,112.27,112.27,0,0,0,.7-14.49q0-10.08-1.23-14.69a6.41,6.41,0,0,0-1.15-2.5A6.62,6.62,0,0,0,403.1,115a7.63,7.63,0,0,1-2.55-1.68,2.92,2.92,0,0,1-.72-2q0-3.75,6.75-4.73a68.78,68.78,0,0,1,8-.31,16.62,16.62,0,0,1,4.77.49A11.56,11.56,0,0,1,422.91,109Z" transform="translate(-10.06 -5.35)"/><path class="cls-7" d="M487.11,160.42h-2.95c-1.72,0-3.64.08-5.77.23-1.34.11-2.27.16-2.78.16a7.54,7.54,0,0,1-4.46-1.21,3.7,3.7,0,0,1-1.72-3.17,2.84,2.84,0,0,1,.76-2.12,5.46,5.46,0,0,1,2.47-1.23,3.49,3.49,0,0,0,2.21-1.27,9.23,9.23,0,0,0,.9-3.42q.33-2.94.59-11.41t.27-16.83a11.81,11.81,0,0,0-.53-4.38,4.08,4.08,0,0,0-2.5-1.76q-2.82-1-2.82-3.47a3.3,3.3,0,0,1,1.94-3,11.29,11.29,0,0,1,5.42-1.08c.77,0,1.67,0,2.7,0,2.3.08,4,.12,5,.12q5.85,0,13.21-.35c1,0,2.33-.08,3.89-.08q9.38,0,14.81,2A22.79,22.79,0,0,1,530,118.47a29.76,29.76,0,0,1,3.64,15.07,30.19,30.19,0,0,1-1.35,8.85,26.55,26.55,0,0,1-3.65,7.68,25,25,0,0,1-13.09,9.22A34.35,34.35,0,0,1,505,160.85l-4.95-.16-4.26-.11C492.52,160.47,489.61,160.42,487.11,160.42Zm8.59-42.34v30.23a4.67,4.67,0,0,0,1.1,3.5,5.32,5.32,0,0,0,3.68,1q12,0,11.95-17.34,0-9.57-2.78-14.85-3.07-5.82-10.39-5.82a4,4,0,0,0-2.77.75A3.29,3.29,0,0,0,495.7,118.08Z" transform="translate(-10.06 -5.35)"/><path class="cls-7" d="M554.7,106.28a47.47,47.47,0,0,1,8.8.78q5.57,1.05,5.56,4.49a2.33,2.33,0,0,1-.55,1.7,12,12,0,0,1-2.8,1.66c-1.26.6-2.08,1.92-2.48,4a75.19,75.19,0,0,0-.59,11.87q0,14.93.77,18.48a4,4,0,0,0,.88,1.74,7.81,7.81,0,0,0,2.07,1.31q2.7,1.17,2.7,3.39,0,3.14-5,4.3a59.85,59.85,0,0,1-13.22,1.25q-13.33,0-13.34-4.84c0-1.18.88-2.27,2.62-3.28a4.6,4.6,0,0,0,2.38-3.21q.76-4.45.77-18.9,0-10-1.06-12.82a5.93,5.93,0,0,0-2.74-2.89,9.9,9.9,0,0,1-2.25-1.75,2.77,2.77,0,0,1-.57-1.8,3,3,0,0,1,1.69-2.68,20.25,20.25,0,0,1,6-1.77A54.33,54.33,0,0,1,554.7,106.28Z" transform="translate(-10.06 -5.35)"/><path class="cls-7" d="M580.31,107.1h21c4.26,0,7.36-.09,9.31-.25a31.06,31.06,0,0,0,5.71-1,5.24,5.24,0,0,1,1.35-.23,4.68,4.68,0,0,1,3.77,2.18,13.81,13.81,0,0,1,2.7,8.6,6.42,6.42,0,0,1-1.13,4,4.15,4.15,0,0,1-5.2.94,10,10,0,0,1-2-2.37,8.63,8.63,0,0,0-4.56-3.49,32.91,32.91,0,0,0-9.07-.88q-4.69,0-5.72,1.6a5,5,0,0,0-.64,2.31q-.11,1.44-.1,7.38c0,1.56.27,2.53.82,2.91s2,.57,4.29.57a2.94,2.94,0,0,0,3.48-3.13,16.88,16.88,0,0,1,.59-3.1,3.29,3.29,0,0,1,1.13-1.47,3.05,3.05,0,0,1,2-.7,3.52,3.52,0,0,1,2.87,1.52,10.52,10.52,0,0,1,1.45,4,29.36,29.36,0,0,1,.59,6,22.26,22.26,0,0,1-2,10.12,3.58,3.58,0,0,1-3.35,2.15,2.32,2.32,0,0,1-1.93-.69,6.52,6.52,0,0,1-.82-2.83q-.61-4.41-5.4-4.41A2.7,2.7,0,0,0,597,137.9a8.69,8.69,0,0,0-.68,4.12c0,1.23.09,2.81.27,4.75a22.74,22.74,0,0,0,.55,3.84,2.51,2.51,0,0,0,2,1.63,24.91,24.91,0,0,0,5.66.44c4.09,0,7.18-.5,9.25-1.5a11.35,11.35,0,0,0,5.07-5.45,10.36,10.36,0,0,1,2.07-3,3.56,3.56,0,0,1,2.39-.78,3.49,3.49,0,0,1,2.85,1.43,5.58,5.58,0,0,1,1.12,3.57,17.83,17.83,0,0,1-1.27,5.86,27.84,27.84,0,0,1-3.11,6.25,7.87,7.87,0,0,1-1.55,1.78,2.57,2.57,0,0,1-1.56.45,16.55,16.55,0,0,1-2.25-.23,47.93,47.93,0,0,0-7-.59H576.1a5.17,5.17,0,0,1-3.23-.88,2.93,2.93,0,0,1-1.15-2.48,2.28,2.28,0,0,1,.49-1.64,8.14,8.14,0,0,1,2.25-1.29,4.37,4.37,0,0,0,1.82-1.25,5.21,5.21,0,0,0,.92-2.19,74.26,74.26,0,0,0,1.35-15.9q0-15.07-2-19a2.75,2.75,0,0,0-.9-1.09,8.91,8.91,0,0,0-2.05-.75,2.85,2.85,0,0,1-2.33-3,3.46,3.46,0,0,1,.78-2.23,3.68,3.68,0,0,1,2-1.29A35.34,35.34,0,0,1,580.31,107.1Z" transform="translate(-10.06 -5.35)"/><path class="cls-7" d="M652.24,109l20.38,17c1.91,1.58,3.29,2.38,4.13,2.38q2.13,0,2.13-4.34a24.27,24.27,0,0,0-.61-6.72,4.57,4.57,0,0,0-2.58-2.69,6.19,6.19,0,0,1-2.25-1.58,3.42,3.42,0,0,1-.65-2.17c0-2.19,1.56-3.6,4.7-4.22a38.92,38.92,0,0,1,6.71-.39,34.72,34.72,0,0,1,8.55.7q3.76,1.09,3.77,4.14c0,1.7-1,3-3.07,3.83a6.69,6.69,0,0,0-1.68.9A3.14,3.14,0,0,0,691,117c-.73,1.72-1.12,5-1.14,9.77v12.73q0,2.92,0,8a37.78,37.78,0,0,1-.86,9.92c-.74,2.53-2.07,3.79-4,3.79a4.43,4.43,0,0,1-2.19-.51,22.79,22.79,0,0,1-3.05-2.34l-24.26-20.74q-2.53-2.19-4.22-2.19-2.49,0-2.49,6.6a28.77,28.77,0,0,0,.63,7.42,4.74,4.74,0,0,0,2.6,2.93q2.75,1.29,2.74,3.36,0,5.43-12.23,5.43a21.14,21.14,0,0,1-8.57-1.39c-2-.92-3.05-2.23-3.05-3.92a3,3,0,0,1,.57-2,10.37,10.37,0,0,1,2.58-1.8,5,5,0,0,0,2.33-3.87,114.13,114.13,0,0,0,.7-14.49q0-10.08-1.23-14.69a6.41,6.41,0,0,0-1.15-2.5,6.62,6.62,0,0,0-2.29-1.56,7.8,7.8,0,0,1-2.56-1.68,3,3,0,0,1-.71-2q0-3.75,6.75-4.73a68.78,68.78,0,0,1,8-.31,16.62,16.62,0,0,1,4.77.49A11.42,11.42,0,0,1,652.24,109Z" transform="translate(-10.06 -5.35)"/><path class="cls-7" d="M716.44,160.42H713.5c-1.72,0-3.64.08-5.77.23-1.34.11-2.27.16-2.78.16a7.54,7.54,0,0,1-4.46-1.21,3.7,3.7,0,0,1-1.72-3.17,2.87,2.87,0,0,1,.75-2.12,5.51,5.51,0,0,1,2.48-1.23,3.49,3.49,0,0,0,2.21-1.27,9.23,9.23,0,0,0,.9-3.42q.33-2.94.59-11.41t.27-16.83a11.81,11.81,0,0,0-.53-4.38,4.08,4.08,0,0,0-2.5-1.76q-2.82-1-2.82-3.47a3.28,3.28,0,0,1,1.94-3,11.27,11.27,0,0,1,5.42-1.08c.76,0,1.67,0,2.7,0,2.29.08,4,.12,5,.12q5.87,0,13.22-.35c1,0,2.33-.08,3.89-.08q9.36,0,14.81,2a22.77,22.77,0,0,1,12.19,10.24,29.66,29.66,0,0,1,3.64,15.07,30.19,30.19,0,0,1-1.35,8.85,26.53,26.53,0,0,1-3.64,7.68,25,25,0,0,1-13.09,9.22,34.41,34.41,0,0,1-10.48,1.56l-5-.16-4.25-.11Q720.21,160.42,716.44,160.42Zm8.6-42.34v30.23a4.63,4.63,0,0,0,1.1,3.5,5.31,5.31,0,0,0,3.68,1q12,0,11.95-17.34,0-9.57-2.78-14.85-3.07-5.82-10.4-5.82a4,4,0,0,0-2.76.75A3.29,3.29,0,0,0,725,118.08Z" transform="translate(-10.06 -5.35)"/><path class="cls-7" d="M798,106a30.28,30.28,0,0,1,18.37,5.74A29.78,29.78,0,0,1,825,122a27,27,0,0,1,3.24,12.5A24.3,24.3,0,0,1,821.8,151a30,30,0,0,1-14.11,8.86,36.41,36.41,0,0,1-10.76,1.64,33.54,33.54,0,0,1-13.55-2.81,26.87,26.87,0,0,1-12.23-10.27,26.46,26.46,0,0,1-4.3-14.65,26,26,0,0,1,5.53-16.41A28.27,28.27,0,0,1,785.59,108,35.69,35.69,0,0,1,798,106Zm-3.89,11.21a6.26,6.26,0,0,0-5.44,2.93,8.68,8.68,0,0,0-1.55,5.19A33.58,33.58,0,0,0,789,135.56a44.73,44.73,0,0,0,4.74,10.29,10,10,0,0,0,3.13,3.05,7.3,7.3,0,0,0,3.79,1.13,6.26,6.26,0,0,0,5-2.23,8.7,8.7,0,0,0,1.9-5.86,36.59,36.59,0,0,0-1.59-10.19,34.86,34.86,0,0,0-4.13-9.34,13,13,0,0,0-3.6-3.75A8,8,0,0,0,794.06,117.22Z" transform="translate(-10.06 -5.35)"/><path class="cls-8" d="M160.36,102H156.8q-3.12,0-7,.28-2.43.18-3.36.18a9.33,9.33,0,0,1-5.39-1.42A4.32,4.32,0,0,1,139,97.32a3.34,3.34,0,0,1,.92-2.5,6.71,6.71,0,0,1,3-1.45,4.17,4.17,0,0,0,2.67-1.49,10.42,10.42,0,0,0,1.08-4q.41-3.45.72-13.41t.32-19.78c0-2.57-.21-4.28-.64-5.14a4.83,4.83,0,0,0-3-2.06q-3.4-1.2-3.41-4.09A3.88,3.88,0,0,1,143,39.88a14,14,0,0,1,6.55-1.26c.92,0,2,0,3.26,0q4.16.14,6,.14,7.06,0,16-.41c1.25-.06,2.82-.09,4.7-.09q11.31,0,17.89,2.38a27.29,27.29,0,0,1,14.73,12q4.41,7.42,4.4,17.71a34.55,34.55,0,0,1-1.63,10.4,30.94,30.94,0,0,1-4.4,9,30.15,30.15,0,0,1-15.82,10.83A42.34,42.34,0,0,1,182,102.51l-6-.19-5.14-.13Q164.91,102,160.36,102Zm10.38-49.75V87.77c0,1.93.44,3.3,1.33,4.11s2.38,1.22,4.45,1.22Q191,93.1,191,72.72q0-11.25-3.37-17.44-3.71-6.84-12.55-6.84a5,5,0,0,0-3.34.87A3.82,3.82,0,0,0,170.74,52.25Z" transform="translate(-10.06 -5.35)"/><path class="cls-8" d="M248.25,59.45V86.12a12.64,12.64,0,0,0,.62,4.64,6.35,6.35,0,0,0,2.49,2.71,8,8,0,0,1,2,1.72,3,3,0,0,1,.52,1.81q0,5.93-16.16,5.92A59.06,59.06,0,0,1,224,101.64a5.77,5.77,0,0,1-2.8-1.61,3.75,3.75,0,0,1-1.06-2.62,3,3,0,0,1,.55-1.92,14.42,14.42,0,0,1,2.76-2.21,5.82,5.82,0,0,0,2.18-3.44,29.25,29.25,0,0,0,.64-7.11c0-1-.07-2.9-.22-5.67s-.26-4.39-.32-4.85c-.2-1.25-1.12-2.21-2.77-2.89-2-.82-3.07-2-3.07-3.67,0-1.93,1.34-3.36,4-4.31A94,94,0,0,1,235.74,58a49.5,49.5,0,0,1,9.79-1.38C247.34,56.61,248.25,57.56,248.25,59.45Zm-9.79-20.1a13.4,13.4,0,0,1,6.82,1.49,4.53,4.53,0,0,1,2.52,4c0,2.36-1.26,4.22-3.8,5.6a30.33,30.33,0,0,1-14.59,3.26,11,11,0,0,1-5.73-1.29,5.09,5.09,0,0,1-2.87-4.59q0-3.95,6.08-6.19A33.37,33.37,0,0,1,238.46,39.35Z" transform="translate(-10.06 -5.35)"/><path class="cls-8" d="M308.56,70.65,295.75,93.79a35.52,35.52,0,0,1-5,7.46,6.22,6.22,0,0,1-4.45,2.08,4.84,4.84,0,0,1-3.75-1.56,35.07,35.07,0,0,1-5.29-7.07L263.18,70a10.73,10.73,0,0,0-2.2-2.92A7.05,7.05,0,0,0,258,65.7c-2.51-.68-3.76-1.93-3.76-3.77s1.55-3.22,4.65-4.08,8-1.29,14.68-1.29q8.4,0,12.38,1.13t4,3.46a4.2,4.2,0,0,1-1.88,3.17,9.7,9.7,0,0,0-1.53,1.51,2.25,2.25,0,0,0-.35,1.29q0,1.56,2.18,5.19t4.05,3.53a2.63,2.63,0,0,0,2-.87,33.43,33.43,0,0,0,2.86-4.5,9.2,9.2,0,0,0,1.54-4,4.1,4.1,0,0,0-1.58-2.61,4.57,4.57,0,0,1-1.68-3.08c0-1.47,1-2.52,3.13-3.17s5.53-1,10.31-1q10.08,0,10.08,4,0,2.34-3.6,3.39a9.94,9.94,0,0,0-3.83,1.79A23.64,23.64,0,0,0,308.56,70.65Z" transform="translate(-10.06 -5.35)"/><path class="cls-8" d="M347.86,59.45V86.12a12.91,12.91,0,0,0,.61,4.64,6.38,6.38,0,0,0,2.5,2.71,8.16,8.16,0,0,1,2,1.72,3,3,0,0,1,.52,1.81q0,5.93-16.17,5.92a59.18,59.18,0,0,1-13.79-1.28,5.78,5.78,0,0,1-2.79-1.61,3.75,3.75,0,0,1-1.06-2.62,3,3,0,0,1,.54-1.92A14.61,14.61,0,0,1,323,93.28a5.76,5.76,0,0,0,2.17-3.44,29.16,29.16,0,0,0,.65-7.11c0-1-.08-2.9-.23-5.67s-.25-4.39-.32-4.85c-.19-1.25-1.12-2.21-2.76-2.89-2.05-.82-3.07-2-3.07-3.67,0-1.93,1.34-3.36,4-4.31A94,94,0,0,1,335.35,58a49.5,49.5,0,0,1,9.79-1.38C347,56.61,347.86,57.56,347.86,59.45Zm-9.79-20.1a13.42,13.42,0,0,1,6.82,1.49,4.53,4.53,0,0,1,2.52,4c0,2.36-1.27,4.22-3.81,5.6A30.32,30.32,0,0,1,329,53.72a11,11,0,0,1-5.73-1.29,5.09,5.09,0,0,1-2.87-4.59q0-3.95,6.08-6.19A33.33,33.33,0,0,1,338.07,39.35Z" transform="translate(-10.06 -5.35)"/><path class="cls-8" d="M402.13,81.44H378.9c-1,0-1.53.41-1.53,1.24q0,3,3.48,5.62a12.16,12.16,0,0,0,7.49,2.64,18.76,18.76,0,0,0,5.27-.85A17.44,17.44,0,0,0,398.37,88,5.48,5.48,0,0,1,401,86.9a3.43,3.43,0,0,1,2.53,1.47,4.69,4.69,0,0,1,1.23,3q0,3.3-4.45,6.38a31,31,0,0,1-18.14,5.46q-10.38,0-17.4-5.6A23.2,23.2,0,0,1,359.18,91a21.92,21.92,0,0,1-2.92-10.93,21.29,21.29,0,0,1,5-13.86,26.4,26.4,0,0,1,11.07-7.94,29.9,29.9,0,0,1,10.93-2,25.76,25.76,0,0,1,16,5,20.41,20.41,0,0,1,5.34,5.88,14.56,14.56,0,0,1,2.33,7.53,8.33,8.33,0,0,1-1.34,4.89A4,4,0,0,1,402.13,81.44ZM387.85,36.37a23.87,23.87,0,0,1,8,1.24,7.06,7.06,0,0,1,2.82,1.7,3,3,0,0,1,1,2.2c-.07,1.41-1.47,3.07-4.2,5A27.64,27.64,0,0,1,379,51.88c-3.4,0-5.09-1.13-5.09-3.39a2.87,2.87,0,0,1,.51-1.86,20.56,20.56,0,0,1,3-2.37,27.61,27.61,0,0,0,2.71-2,1.55,1.55,0,0,0,.5-1.13,3.41,3.41,0,0,0-.59-1.38,1.2,1.2,0,0,1-.2-.68c0-.77.74-1.4,2.22-1.91A19.29,19.29,0,0,1,387.85,36.37Zm-7.67,36.49h5c2.11,0,3.16-.91,3.16-2.71a5.53,5.53,0,0,0-1.53-4,5.37,5.37,0,0,0-4-1.56,5.23,5.23,0,0,0-4.35,2A6.16,6.16,0,0,0,377,70.38a2.29,2.29,0,0,0,.72,1.93A4.26,4.26,0,0,0,380.18,72.86Z" transform="translate(-10.06 -5.35)"/><path class="cls-8" d="M433.23,56.56q2.61,0,3.18.69t1,4.41c.16,1.34.67,2,1.53,2,.66,0,1.28-.45,1.88-1.33q3.95-5.74,10.33-5.74a10.26,10.26,0,0,1,7.36,2.71,10.09,10.09,0,0,1,2.28,3.42,9.51,9.51,0,0,1-.2,8.44,10.93,10.93,0,0,1-2.82,3.74,11.27,11.27,0,0,1-7.76,2.8,9.62,9.62,0,0,1-4.22-.82,21.23,21.23,0,0,1-4.48-3.35,2.93,2.93,0,0,0-1.93-1A1.75,1.75,0,0,0,437.6,74a27.2,27.2,0,0,0-.42,6.08,53.74,53.74,0,0,0,.54,9.45,3.65,3.65,0,0,0,1,1.91,7.68,7.68,0,0,0,2.64,1.08q4.46,1.23,4.45,4.31a4.44,4.44,0,0,1-1.43,3.28,7.22,7.22,0,0,1-3.81,1.86,79.06,79.06,0,0,1-13.94.92q-8.75,0-13.3-1.42-4.05-1.29-4.05-4.45,0-2.4,3-4.27a7.18,7.18,0,0,0,2-1.59,4.26,4.26,0,0,0,.75-2q.78-4.17.79-15.46a6.53,6.53,0,0,0-.5-3,3.58,3.58,0,0,0-2-1.44q-3.51-1.29-3.51-3.72a4.53,4.53,0,0,1,2.43-3.79,30.74,30.74,0,0,1,8.1-3.14A51.49,51.49,0,0,1,433.23,56.56Z" transform="translate(-10.06 -5.35)"/><path class="cls-8" d="M495.11,68.31V83.83a6.77,6.77,0,0,0,1.46,4.49,4.63,4.63,0,0,0,3.73,1.75,11.92,11.92,0,0,0,5.1-1.65,3,3,0,0,1,1.48-.42,2.77,2.77,0,0,1,2.17,1.33,4.78,4.78,0,0,1,1,2.9q0,2.83-3.36,5.46a26.57,26.57,0,0,1-17,5.55q-7.92,0-12.71-4.15a13.8,13.8,0,0,1-4.79-11V66.94c0-.71-.09-1.14-.27-1.31a2.44,2.44,0,0,0-1.41-.25h-5.09a2.59,2.59,0,0,1-1.83-.44,3.33,3.33,0,0,1-.4-2v-2a2.27,2.27,0,0,1,1.14-2L487,45.64a4.6,4.6,0,0,1,2.07-.41h4a2,2,0,0,1,1.65.52,3.62,3.62,0,0,1,.42,2.09V54a2.45,2.45,0,0,0,.47,1.79,3.35,3.35,0,0,0,2,.41h9.14a3.22,3.22,0,0,1,2.37.62,4.25,4.25,0,0,1,.55,2.64v2.71a4.89,4.89,0,0,1-.7,3.05,3.1,3.1,0,0,1-2.52.85h-8.94a2.79,2.79,0,0,0-1.88.46A2.36,2.36,0,0,0,495.11,68.31Z" transform="translate(-10.06 -5.35)"/><path class="cls-8" d="M557.65,81.44H534.41c-1,0-1.53.41-1.53,1.24q0,3,3.49,5.62a12.13,12.13,0,0,0,7.48,2.64,18.71,18.71,0,0,0,5.27-.85A17.38,17.38,0,0,0,553.89,88a5.48,5.48,0,0,1,2.67-1.1,3.43,3.43,0,0,1,2.52,1.47,4.7,4.7,0,0,1,1.24,3c0,2.2-1.49,4.33-4.45,6.38a31,31,0,0,1-18.15,5.46q-10.38,0-17.4-5.6A23.2,23.2,0,0,1,514.69,91a21.92,21.92,0,0,1-2.92-10.93,21.29,21.29,0,0,1,5-13.86,26.43,26.43,0,0,1,11.08-7.94,29.8,29.8,0,0,1,10.92-2,25.79,25.79,0,0,1,16,5,20.41,20.41,0,0,1,5.34,5.88,14.54,14.54,0,0,1,2.32,7.53,8.33,8.33,0,0,1-1.33,4.89A4.06,4.06,0,0,1,557.65,81.44ZM535.7,72.86h5c2.11,0,3.16-.91,3.16-2.71a5.53,5.53,0,0,0-1.53-4,5.36,5.36,0,0,0-4-1.56,5.2,5.2,0,0,0-4.35,2,6.11,6.11,0,0,0-1.49,3.81,2.29,2.29,0,0,0,.72,1.93A4.29,4.29,0,0,0,535.7,72.86Z" transform="translate(-10.06 -5.35)"/><path class="cls-8" d="M594.37,68.31V83.83a6.77,6.77,0,0,0,1.46,4.49,4.64,4.64,0,0,0,3.74,1.75,11.93,11.93,0,0,0,5.09-1.65,3,3,0,0,1,1.48-.42,2.78,2.78,0,0,1,2.18,1.33,4.83,4.83,0,0,1,1,2.9q0,2.83-3.36,5.46a26.57,26.57,0,0,1-17,5.55q-7.92,0-12.71-4.15a13.8,13.8,0,0,1-4.79-11V66.94c0-.71-.09-1.14-.27-1.31a2.4,2.4,0,0,0-1.41-.25h-5.09a2.59,2.59,0,0,1-1.83-.44,3.33,3.33,0,0,1-.4-2v-2a2.27,2.27,0,0,1,1.14-2l22.64-13.22a4.6,4.6,0,0,1,2.07-.41h4a2,2,0,0,1,1.65.52,3.62,3.62,0,0,1,.42,2.09V54a2.45,2.45,0,0,0,.47,1.79,3.37,3.37,0,0,0,2,.41H606a3.22,3.22,0,0,1,2.37.62,4.25,4.25,0,0,1,.55,2.64v2.71a5,5,0,0,1-.69,3.05,3.12,3.12,0,0,1-2.52.85h-9a2.81,2.81,0,0,0-1.88.46A2.36,2.36,0,0,0,594.37,68.31Z" transform="translate(-10.06 -5.35)"/><path class="cls-8" d="M656.91,81.44H633.67c-1,0-1.53.41-1.53,1.24q0,3,3.49,5.62a12.16,12.16,0,0,0,7.49,2.64,18.7,18.7,0,0,0,5.26-.85A17.38,17.38,0,0,0,653.15,88a5.48,5.48,0,0,1,2.67-1.1,3.39,3.39,0,0,1,2.52,1.47,4.7,4.7,0,0,1,1.24,3c0,2.2-1.49,4.33-4.45,6.38A31,31,0,0,1,637,103.24q-10.4,0-17.41-5.6A23.2,23.2,0,0,1,614,91,21.92,21.92,0,0,1,611,80.06a21.25,21.25,0,0,1,5.05-13.86,26.33,26.33,0,0,1,11.07-7.94,29.8,29.8,0,0,1,10.92-2,25.79,25.79,0,0,1,16,5,20.41,20.41,0,0,1,5.34,5.88,14.54,14.54,0,0,1,2.32,7.53,8.33,8.33,0,0,1-1.33,4.89A4.06,4.06,0,0,1,656.91,81.44ZM635,72.86h5c2.11,0,3.17-.91,3.17-2.71a5.54,5.54,0,0,0-1.54-4,5.35,5.35,0,0,0-4-1.56,5.2,5.2,0,0,0-4.35,2,6.11,6.11,0,0,0-1.49,3.81,2.29,2.29,0,0,0,.72,1.93A4.29,4.29,0,0,0,635,72.86Z" transform="translate(-10.06 -5.35)"/><path class="cls-9" d="M207.57,133.43l7.74,15.82a11,11,0,0,0,1.84,2.87,4.27,4.27,0,0,0,2.25.92q2.94.42,2.94,2.85,0,2.85-3.6,4.1T207,161.24a92.24,92.24,0,0,1-13.71-.74,6.42,6.42,0,0,1-3.25-1.43,3.33,3.33,0,0,1-1.21-2.6,2.44,2.44,0,0,1,.64-1.81,5.79,5.79,0,0,1,2.35-1.19c1.28-.42,1.92-1.12,1.92-2.11q0-2.62-3.31-3.09a82.38,82.38,0,0,0-10-.47c-3.63,0-5.79.21-6.5.63a3.2,3.2,0,0,0-1.15,1.4,4.47,4.47,0,0,0-.49,2,1.34,1.34,0,0,0,.35,1.11,11.06,11.06,0,0,0,2.27.84c1.66.47,2.49,1.41,2.49,2.81q0,4.65-11.66,4.65a39.94,39.94,0,0,1-9.73-.86,3.49,3.49,0,0,1-2.87-3.59,2.6,2.6,0,0,1,.64-1.88,5.77,5.77,0,0,1,2.27-1.21,8.9,8.9,0,0,0,4-2.52,37.86,37.86,0,0,0,3.9-6.93l5.77-12.07A91.5,91.5,0,0,0,174,122.2a21.43,21.43,0,0,0,1.12-6.47,19.86,19.86,0,0,1,.43-4.67,5.83,5.83,0,0,1,1.74-2.55,9.92,9.92,0,0,1,7.2-2.74,12.29,12.29,0,0,1,7.9,3.09Q197.59,113.08,207.57,133.43Zm-28.48,4.92h8c1.48,0,2.21-.31,2.21-.94q0-1.29-3.07-6.33a20.39,20.39,0,0,0-2.12-3.08,2.14,2.14,0,0,0-1.56-.78c-1,0-1.8.87-2.45,2.61-.11.24-.51,1.16-1.19,2.78a21.52,21.52,0,0,0-1.72,4.76C177.21,138,177.84,138.35,179.09,138.35Z" transform="translate(-10.06 -5.35)"/><path class="cls-9" d="M230.81,142V121.47c0-2.65-.19-4.34-.57-5s-1.42-1.3-3.11-1.74q-3.67-1-3.68-3.52a3,3,0,0,1,1.55-2.69,8.77,8.77,0,0,1,4.5-.94c.66,0,2.28,0,4.87.12h2.46q6.79,0,8-.1c.77,0,3.55-.27,8.32-.69,1.59-.15,3-.23,4.34-.23a26.32,26.32,0,0,1,11.95,2.62q9.12,4.53,9.12,14.37a15.24,15.24,0,0,1-6.38,12.78,23.69,23.69,0,0,1-14.57,4.49c-1.44,0-3.22-.09-5.32-.28-1.12-.07-1.81-.11-2.08-.11-.79,0-1.19.43-1.19,1.29V142l.29,6.41a5.35,5.35,0,0,0,.71,2.79,7,7,0,0,0,2.6,1.89c1.77.92,2.66,1.91,2.66,3,0,1.64-1.31,2.91-3.93,3.79a36.19,36.19,0,0,1-11.13,1.33q-15.13,0-15.14-5a2.37,2.37,0,0,1,.66-1.8,14.39,14.39,0,0,1,3.07-1.79,2.94,2.94,0,0,0,1.72-2.07A84.09,84.09,0,0,0,230.81,142Zm18.46-25.51v13.28c0,1,.23,1.63.69,1.84a8,8,0,0,0,7.53-.9q2.65-2.07,2.66-6.95c0-3.39-1-5.83-3.11-7.35a7.81,7.81,0,0,0-4.75-1.44C250.28,115,249.27,115.5,249.27,116.51Z" transform="translate(-10.06 -5.35)"/><path class="cls-9" d="M308.06,138q-1.55,0-2,.9a12.14,12.14,0,0,0-.43,4.18,35.9,35.9,0,0,0,.65,7.73,2.82,2.82,0,0,0,.62,1.21,6.72,6.72,0,0,0,1.55,1.06c1.64.85,2.46,2,2.46,3.39q0,2.58-3.42,3.66T296,161.2q-15.13,0-15.14-5.47a2.35,2.35,0,0,1,.45-1.5,9.1,9.1,0,0,1,2.05-1.58,5.86,5.86,0,0,0,2.43-2.68,18.46,18.46,0,0,0,.88-5.33q.21-2.77.21-19.88a31.28,31.28,0,0,0-.57-7.39,4.47,4.47,0,0,0-2.46-2.85,7.85,7.85,0,0,1-2.41-1.5,2.57,2.57,0,0,1-.62-1.78,3.33,3.33,0,0,1,1.17-2.52,7.22,7.22,0,0,1,3.25-1.58,21.06,21.06,0,0,1,4.83-.43q1.35,0,6.75.39c.68.05,1.76.08,3.23.08q3.69,0,9.82-.47c2.59-.18,4.41-.28,5.45-.28q8.75,0,14.48,4a11.64,11.64,0,0,1,5.16,10.08,12.33,12.33,0,0,1-1.8,6.54,11.38,11.38,0,0,1-5,4.43c-.87.42-1.31.92-1.31,1.49q0,1.13,2,1.83a11.94,11.94,0,0,1,6.3,4.5q2,3,2.87,9.21a6.8,6.8,0,0,0,1.06,3.34,7.39,7.39,0,0,0,3.23,1.47,2.44,2.44,0,0,1,1.31,1,2.83,2.83,0,0,1,.53,1.69,3.91,3.91,0,0,1-1,2.45,6.68,6.68,0,0,1-2.54,1.93,23.82,23.82,0,0,1-9.41,1.52q-8,0-11.41-4a15.63,15.63,0,0,1-2.64-4.53,75.83,75.83,0,0,1-2.56-8.52,11.92,11.92,0,0,0-2.39-5.23A5.85,5.85,0,0,0,308.06,138Zm-2.37-19.92-.45,9.1v.35a2.85,2.85,0,0,0,.43,1.87,2.35,2.35,0,0,0,1.74.47q3.6,0,5.24-1.77c1.09-1.19,1.63-3.08,1.63-5.69q0-7.53-5.6-7.54a3,3,0,0,0-2.25.71A3.88,3.88,0,0,0,305.69,118.08Z" transform="translate(-10.06 -5.35)"/><path class="cls-9" d="M354.83,107.1h21c4.26,0,7.36-.09,9.31-.25a31.22,31.22,0,0,0,5.71-1,5.24,5.24,0,0,1,1.35-.23,4.65,4.65,0,0,1,3.76,2.18,13.82,13.82,0,0,1,2.71,8.6,6.42,6.42,0,0,1-1.13,4,4.15,4.15,0,0,1-5.2.94,10,10,0,0,1-2-2.37,8.63,8.63,0,0,0-4.56-3.49,33,33,0,0,0-9.07-.88c-3.14,0-5,.53-5.73,1.6a5.11,5.11,0,0,0-.63,2.31q-.11,1.44-.1,7.38c0,1.56.27,2.53.82,2.91s2,.57,4.29.57a2.94,2.94,0,0,0,3.48-3.13,16.88,16.88,0,0,1,.59-3.1,3.29,3.29,0,0,1,1.13-1.47,3.05,3.05,0,0,1,2-.7,3.52,3.52,0,0,1,2.87,1.52,10.69,10.69,0,0,1,1.45,4,29.36,29.36,0,0,1,.59,6,22.39,22.39,0,0,1-2,10.12,3.59,3.59,0,0,1-3.36,2.15,2.3,2.3,0,0,1-1.92-.69,6.52,6.52,0,0,1-.82-2.83q-.61-4.41-5.4-4.41a2.71,2.71,0,0,0-2.52,1.11,8.72,8.72,0,0,0-.67,4.12c0,1.23.09,2.81.27,4.75a22.74,22.74,0,0,0,.55,3.84,2.51,2.51,0,0,0,2,1.63,25,25,0,0,0,5.67.44q6.13,0,9.25-1.5a11.35,11.35,0,0,0,5.07-5.45,10.17,10.17,0,0,1,2.07-3,3.56,3.56,0,0,1,2.39-.78,3.47,3.47,0,0,1,2.84,1.43,5.59,5.59,0,0,1,1.13,3.57,17.83,17.83,0,0,1-1.27,5.86,27.84,27.84,0,0,1-3.11,6.25,8.13,8.13,0,0,1-1.55,1.78,2.57,2.57,0,0,1-1.56.45,16.26,16.26,0,0,1-2.25-.23,47.93,47.93,0,0,0-7-.59h-34.7a5.22,5.22,0,0,1-3.24-.88,3,3,0,0,1-1.14-2.48,2.28,2.28,0,0,1,.49-1.64,8.14,8.14,0,0,1,2.25-1.29,4.37,4.37,0,0,0,1.82-1.25,5.34,5.34,0,0,0,.92-2.19,74.26,74.26,0,0,0,1.35-15.9q0-15.07-2-19a2.75,2.75,0,0,0-.9-1.09,8.91,8.91,0,0,0-2-.75,2.85,2.85,0,0,1-2.33-3,3.46,3.46,0,0,1,.78-2.23,3.68,3.68,0,0,1,2-1.29A35.34,35.34,0,0,1,354.83,107.1Z" transform="translate(-10.06 -5.35)"/><path class="cls-10" d="M426.76,109l20.38,17c1.91,1.58,3.29,2.38,4.13,2.38q2.13,0,2.13-4.34a24.27,24.27,0,0,0-.61-6.72,4.57,4.57,0,0,0-2.58-2.69,6.1,6.1,0,0,1-2.25-1.58,3.42,3.42,0,0,1-.66-2.17q0-3.28,4.71-4.22a38.92,38.92,0,0,1,6.71-.39,34.72,34.72,0,0,1,8.55.7q3.76,1.09,3.77,4.14c0,1.7-1,3-3.07,3.83a6.69,6.69,0,0,0-1.68.9,3.14,3.14,0,0,0-.78,1.17c-.73,1.72-1.12,5-1.14,9.77v12.73q0,2.92,0,8c0,4.58-.26,7.89-.86,9.92q-1.11,3.8-4,3.79a4.43,4.43,0,0,1-2.19-.51,22.79,22.79,0,0,1-3.05-2.34L430,137.65q-2.54-2.19-4.22-2.19-2.49,0-2.49,6.6a28.77,28.77,0,0,0,.63,7.42,4.71,4.71,0,0,0,2.6,2.93q2.74,1.29,2.74,3.36,0,5.43-12.23,5.43a21.19,21.19,0,0,1-8.58-1.39q-3-1.38-3-3.92a3,3,0,0,1,.57-2,10.37,10.37,0,0,1,2.58-1.8,5,5,0,0,0,2.33-3.87,114.5,114.5,0,0,0,.69-14.49q0-10.08-1.22-14.69a6.56,6.56,0,0,0-1.15-2.5A6.72,6.72,0,0,0,407,115a7.8,7.8,0,0,1-2.56-1.68,3,3,0,0,1-.71-2q0-3.75,6.75-4.73a68.78,68.78,0,0,1,8-.31,16.5,16.5,0,0,1,4.76.49A11.33,11.33,0,0,1,426.76,109Z" transform="translate(-10.06 -5.35)"/><path class="cls-10" d="M491,160.42H488c-1.72,0-3.65.08-5.77.23-1.34.11-2.27.16-2.79.16A7.58,7.58,0,0,1,475,159.6a3.72,3.72,0,0,1-1.71-3.17,2.87,2.87,0,0,1,.75-2.12,5.51,5.51,0,0,1,2.48-1.23,3.49,3.49,0,0,0,2.21-1.27,9.23,9.23,0,0,0,.9-3.42q.33-2.94.59-11.41t.27-16.83a11.81,11.81,0,0,0-.53-4.38,4.08,4.08,0,0,0-2.5-1.76q-2.82-1-2.82-3.47a3.28,3.28,0,0,1,1.94-3,11.24,11.24,0,0,1,5.42-1.08c.76,0,1.66,0,2.7,0,2.29.08,4,.12,5,.12q5.85,0,13.22-.35c1,0,2.33-.08,3.89-.08q9.36,0,14.81,2a22.77,22.77,0,0,1,12.19,10.24,29.66,29.66,0,0,1,3.64,15.07,30.19,30.19,0,0,1-1.35,8.85,26.53,26.53,0,0,1-3.64,7.68,25,25,0,0,1-13.09,9.22,34.46,34.46,0,0,1-10.48,1.56l-4.95-.16-4.25-.11Q494.73,160.42,491,160.42Zm8.59-42.34v30.23a4.63,4.63,0,0,0,1.11,3.5,5.31,5.31,0,0,0,3.68,1q12,0,11.95-17.34,0-9.57-2.78-14.85-3.08-5.82-10.4-5.82a4,4,0,0,0-2.76.75A3.29,3.29,0,0,0,499.55,118.08Z" transform="translate(-10.06 -5.35)"/><path class="cls-10" d="M558.56,106.28a47.28,47.28,0,0,1,8.79.78q5.56,1.05,5.57,4.49a2.33,2.33,0,0,1-.55,1.7,12.14,12.14,0,0,1-2.81,1.66c-1.25.6-2.08,1.92-2.47,4a74.79,74.79,0,0,0-.6,11.87q0,14.93.78,18.48a3.86,3.86,0,0,0,.88,1.74,7.81,7.81,0,0,0,2.07,1.31q2.7,1.17,2.7,3.39c0,2.09-1.67,3.52-5,4.3a59.85,59.85,0,0,1-13.22,1.25q-13.34,0-13.34-4.84c0-1.18.87-2.27,2.62-3.28a4.56,4.56,0,0,0,2.37-3.21q.78-4.45.78-18.9,0-10-1.06-12.82a5.93,5.93,0,0,0-2.74-2.89,9.9,9.9,0,0,1-2.25-1.75,2.72,2.72,0,0,1-.58-1.8,3,3,0,0,1,1.7-2.68,20.16,20.16,0,0,1,6-1.77A54.51,54.51,0,0,1,558.56,106.28Z" transform="translate(-10.06 -5.35)"/><path class="cls-9" d="M584.17,107.1h21c4.26,0,7.36-.09,9.31-.25a31.22,31.22,0,0,0,5.71-1,5.24,5.24,0,0,1,1.35-.23,4.65,4.65,0,0,1,3.76,2.18,13.81,13.81,0,0,1,2.7,8.6,6.42,6.42,0,0,1-1.12,4,4.15,4.15,0,0,1-5.2.94,10,10,0,0,1-2-2.37,8.61,8.61,0,0,0-4.57-3.49,32.83,32.83,0,0,0-9.06-.88q-4.71,0-5.73,1.6a5.11,5.11,0,0,0-.63,2.31q-.11,1.44-.1,7.38,0,2.34.81,2.91c.55.38,2,.57,4.3.57a3.72,3.72,0,0,0,2.5-.69,3.8,3.8,0,0,0,1-2.44,16.88,16.88,0,0,1,.59-3.1,3.29,3.29,0,0,1,1.13-1.47,3.05,3.05,0,0,1,2-.7,3.52,3.52,0,0,1,2.87,1.52,10.69,10.69,0,0,1,1.45,4,30.08,30.08,0,0,1,.59,6,22.39,22.39,0,0,1-2,10.12,3.59,3.59,0,0,1-3.36,2.15,2.3,2.3,0,0,1-1.92-.69,6.38,6.38,0,0,1-.82-2.83q-.62-4.41-5.4-4.41a2.71,2.71,0,0,0-2.52,1.11,8.72,8.72,0,0,0-.67,4.12c0,1.23.09,2.81.26,4.75a23.5,23.5,0,0,0,.56,3.84,2.49,2.49,0,0,0,2,1.63,25,25,0,0,0,5.67.44q6.14,0,9.25-1.5a11.35,11.35,0,0,0,5.07-5.45,10.17,10.17,0,0,1,2.07-3,3.56,3.56,0,0,1,2.39-.78,3.47,3.47,0,0,1,2.84,1.43,5.59,5.59,0,0,1,1.13,3.57,17.83,17.83,0,0,1-1.27,5.86A28.27,28.27,0,0,1,627,159a8.13,8.13,0,0,1-1.55,1.78,2.57,2.57,0,0,1-1.56.45,16.26,16.26,0,0,1-2.25-.23,48.09,48.09,0,0,0-7-.59H580a5.22,5.22,0,0,1-3.24-.88,3,3,0,0,1-1.14-2.48,2.28,2.28,0,0,1,.49-1.64,8.14,8.14,0,0,1,2.25-1.29,4.43,4.43,0,0,0,1.82-1.25,5.34,5.34,0,0,0,.92-2.19,74.26,74.26,0,0,0,1.35-15.9q0-15.07-2-19a2.92,2.92,0,0,0-.9-1.09,8.91,8.91,0,0,0-2-.75,2.85,2.85,0,0,1-2.33-3,3.46,3.46,0,0,1,.78-2.23,3.64,3.64,0,0,1,2-1.29A35.34,35.34,0,0,1,584.17,107.1Z" transform="translate(-10.06 -5.35)"/><path class="cls-9" d="M656.1,109l20.38,17c1.91,1.58,3.29,2.38,4.13,2.38q2.13,0,2.13-4.34a24.27,24.27,0,0,0-.61-6.72,4.57,4.57,0,0,0-2.58-2.69,6,6,0,0,1-2.25-1.58,3.42,3.42,0,0,1-.66-2.17q0-3.28,4.71-4.22a38.92,38.92,0,0,1,6.71-.39,34.72,34.72,0,0,1,8.55.7q3.76,1.09,3.76,4.14c0,1.7-1,3-3.06,3.83a6.69,6.69,0,0,0-1.68.9,3.14,3.14,0,0,0-.78,1.17q-1.11,2.58-1.15,9.77v12.73q0,2.92,0,8c0,4.58-.26,7.89-.86,9.92q-1.11,3.8-4,3.79a4.43,4.43,0,0,1-2.19-.51,22.15,22.15,0,0,1-3.05-2.34l-24.26-20.74c-1.7-1.46-3.1-2.19-4.22-2.19q-2.49,0-2.49,6.6a28.77,28.77,0,0,0,.63,7.42,4.71,4.71,0,0,0,2.6,2.93q2.75,1.29,2.74,3.36,0,5.43-12.23,5.43a21.19,21.19,0,0,1-8.58-1.39q-3-1.38-3-3.92a3,3,0,0,1,.57-2,10.37,10.37,0,0,1,2.58-1.8,5,5,0,0,0,2.33-3.87,114.5,114.5,0,0,0,.69-14.49q0-10.08-1.22-14.69a6.56,6.56,0,0,0-1.15-2.5A6.72,6.72,0,0,0,636.3,115a7.8,7.8,0,0,1-2.56-1.68,2.91,2.91,0,0,1-.71-2q0-3.75,6.75-4.73a68.66,68.66,0,0,1,8-.31,16.5,16.5,0,0,1,4.76.49A11.33,11.33,0,0,1,656.1,109Z" transform="translate(-10.06 -5.35)"/><path class="cls-9" d="M720.3,160.42h-2.95c-1.71,0-3.64.08-5.77.23-1.33.11-2.26.16-2.78.16a7.56,7.56,0,0,1-4.46-1.21,3.73,3.73,0,0,1-1.72-3.17,2.88,2.88,0,0,1,.76-2.12,5.51,5.51,0,0,1,2.48-1.23,3.52,3.52,0,0,0,2.21-1.27,9.23,9.23,0,0,0,.9-3.42q.31-2.94.59-11.41t.27-16.83a11.54,11.54,0,0,0-.54-4.38A4,4,0,0,0,706.8,114c-1.88-.67-2.83-1.83-2.83-3.47a3.29,3.29,0,0,1,1.95-3,11.24,11.24,0,0,1,5.42-1.08c.76,0,1.66,0,2.7,0,2.29.08,4,.12,5,.12q5.85,0,13.22-.35c1,0,2.33-.08,3.88-.08q9.38,0,14.82,2a22.77,22.77,0,0,1,12.19,10.24,29.66,29.66,0,0,1,3.64,15.07,30.19,30.19,0,0,1-1.35,8.85,26.53,26.53,0,0,1-3.64,7.68,25,25,0,0,1-13.09,9.22,34.46,34.46,0,0,1-10.48,1.56l-5-.16-4.25-.11C725.71,160.47,722.81,160.42,720.3,160.42Zm8.59-42.34v30.23a4.63,4.63,0,0,0,1.11,3.5,5.29,5.29,0,0,0,3.68,1q11.94,0,12-17.34,0-9.57-2.78-14.85-3.08-5.82-10.4-5.82a4,4,0,0,0-2.76.75A3.29,3.29,0,0,0,728.89,118.08Z" transform="translate(-10.06 -5.35)"/><path class="cls-9" d="M801.81,106a30.28,30.28,0,0,1,18.37,5.74A29.89,29.89,0,0,1,828.81,122a27,27,0,0,1,3.23,12.5A24.29,24.29,0,0,1,825.66,151a30,30,0,0,1-14.12,8.86,36.37,36.37,0,0,1-10.76,1.64,33.49,33.49,0,0,1-13.54-2.81A26.87,26.87,0,0,1,775,148.39a26.38,26.38,0,0,1-4.3-14.65,26,26,0,0,1,5.52-16.41A28.35,28.35,0,0,1,789.45,108,35.69,35.69,0,0,1,801.81,106Zm-3.89,11.21a6.24,6.24,0,0,0-5.44,2.93,8.69,8.69,0,0,0-1.56,5.19,33.89,33.89,0,0,0,1.88,10.22,45.17,45.17,0,0,0,4.75,10.29,10,10,0,0,0,3.13,3.05,7.24,7.24,0,0,0,3.79,1.13,6.26,6.26,0,0,0,5-2.23,8.7,8.7,0,0,0,1.9-5.86,36.59,36.59,0,0,0-1.59-10.19,34.87,34.87,0,0,0-4.14-9.34,12.69,12.69,0,0,0-3.6-3.75A7.9,7.9,0,0,0,797.92,117.22Z" transform="translate(-10.06 -5.35)"/><path class="cls-11" d="M724.29,48.17c4.91-14-2.79-29.24-17.25-34.5-15.21-5.53-31.93,1.8-37.23,16.34a26.34,26.34,0,0,0,3.34,24.29,5.6,5.6,0,0,1,.75,5.09L672.3,64,701,73.37l1.61-4.57a5.86,5.86,0,0,1,3.8-3.6,27.67,27.67,0,0,0,17.86-17Z" transform="translate(-10.06 -5.35)"/><path class="cls-12" d="M662.09,29.18l-5.74-1.88a1.31,1.31,0,0,1-.87-1.66,1.39,1.39,0,0,1,1.74-.81L663,26.71a1.31,1.31,0,0,1,.87,1.66A1.38,1.38,0,0,1,662.09,29.18Z" transform="translate(-10.06 -5.35)"/><path class="cls-12" d="M655,48.14a1.34,1.34,0,0,1-.91-1,1.28,1.28,0,0,1,1.07-1.52l5.93-1.1a1.39,1.39,0,0,1,1.62,1,1.3,1.3,0,0,1-1.07,1.53l-5.93,1.1A1.53,1.53,0,0,1,655,48.14Z" transform="translate(-10.06 -5.35)"/><path class="cls-12" d="M724.69,70.94a1.32,1.32,0,0,1-.59-.37l-4-4.36a1.26,1.26,0,0,1,.12-1.84,1.42,1.42,0,0,1,1.93.13l4,4.35A1.27,1.27,0,0,1,726,70.7a1.42,1.42,0,0,1-1.34.24Z" transform="translate(-10.06 -5.35)"/><path class="cls-12" d="M736.78,53.63,731,51.75a1.31,1.31,0,0,1-.86-1.66,1.38,1.38,0,0,1,1.73-.81l5.75,1.88a1.31,1.31,0,0,1,.86,1.66A1.37,1.37,0,0,1,736.78,53.63Z" transform="translate(-10.06 -5.35)"/><path class="cls-12" d="M732.16,33.89a1.34,1.34,0,0,1-.91-1,1.3,1.3,0,0,1,1.07-1.53l5.93-1.09a1.38,1.38,0,0,1,1.62,1,1.3,1.3,0,0,1-1.07,1.53l-5.93,1.09a1.41,1.41,0,0,1-.71,0Z" transform="translate(-10.06 -5.35)"/><path class="cls-12" d="M672.45,14.34a1.4,1.4,0,0,1-.59-.38l-4-4.35A1.26,1.26,0,0,1,668,7.77a1.42,1.42,0,0,1,1.94.13l4,4.35a1.25,1.25,0,0,1-.11,1.84A1.41,1.41,0,0,1,672.45,14.34Z" transform="translate(-10.06 -5.35)"/><path class="cls-13" d="M691.3,64.57a1.3,1.3,0,0,1-.87-1.66l1.48-4.22-3.14-1-1.48,4.22a1.38,1.38,0,0,1-1.73.81,1.31,1.31,0,0,1-.87-1.66l1.48-4.22-1.57-.51A4.19,4.19,0,0,1,681.82,51a4.41,4.41,0,0,1,5.56-2.59,4.19,4.19,0,0,1,2.78,5.33l-.52,1.49,3.14,1,.52-1.49a4.42,4.42,0,0,1,5.57-2.6,4.19,4.19,0,0,1,2.78,5.33,4.42,4.42,0,0,1-5.56,2.59l-1.57-.51L693,63.76A1.37,1.37,0,0,1,691.3,64.57Zm4.08-7.49,1.57.51a1.66,1.66,0,0,0,2.1-1,1.58,1.58,0,0,0-1-2,1.65,1.65,0,0,0-2.09,1Zm-8.87-6.23a1.65,1.65,0,0,0-2.09,1,1.58,1.58,0,0,0,1,2l1.58.52.52-1.5A1.57,1.57,0,0,0,686.51,50.85Z" transform="translate(-10.06 -5.35)"/><path class="cls-12" d="M692.4,70.55l-11.49-3.76,1.74-5A1.47,1.47,0,0,1,684.5,61l8.72,2.85a1.38,1.38,0,0,1,.92,1.77Z" transform="translate(-10.06 -5.35)"/><path class="cls-12" d="M713.71,33.78l-2.21-1.36a10.7,10.7,0,0,0-.1-1.39l2-1.61a1.38,1.38,0,0,0,.37-1.73l-1.65-3.16a1.56,1.56,0,0,0-1.69-.78l-2.55.51a14.26,14.26,0,0,0-1.11-.92l.2-2.49a1.46,1.46,0,0,0-1-1.48l-3.5-1.15a1.53,1.53,0,0,0-1.76.58l-1.41,2.09a11.8,11.8,0,0,0-1.46.08l-1.7-1.91a1.58,1.58,0,0,0-1.83-.37L691,20.23a1.4,1.4,0,0,0-.8,1.59l.57,2.44a12,12,0,0,0-1,1l-2.62-.22a1.49,1.49,0,0,0-1.55,1l-1.17,3.32a1.43,1.43,0,0,0,.63,1.68l2.21,1.36a12.81,12.81,0,0,0,.1,1.39l-2,1.6a1.4,1.4,0,0,0-.37,1.74l1.66,3.16a1.55,1.55,0,0,0,1.68.78l2.56-.52a11,11,0,0,0,1.1.93l-.2,2.48a1.46,1.46,0,0,0,1,1.49l3.51,1.15a1.54,1.54,0,0,0,1.75-.58L699.52,44a14.13,14.13,0,0,0,1.46-.08l1.7,1.91a1.58,1.58,0,0,0,1.83.37l3.3-1.54a1.41,1.41,0,0,0,.8-1.59l-.56-2.45a10.47,10.47,0,0,0,1-1l2.62.22a1.49,1.49,0,0,0,1.55-1l1.17-3.32a1.42,1.42,0,0,0-.63-1.68Z" transform="translate(-10.06 -5.35)"/><path class="cls-14" d="M713.71,33.78l-2.21-1.36a10.7,10.7,0,0,0-.1-1.39l2-1.61a1.38,1.38,0,0,0,.37-1.73l-1.65-3.16a1.56,1.56,0,0,0-1.69-.78l-1.83.37,1.18,2.26a1.39,1.39,0,0,1-.37,1.74l-2,1.6a10.83,10.83,0,0,1,.1,1.39l2.22,1.37a1.42,1.42,0,0,1,.62,1.67l-1.17,3.33a1.5,1.5,0,0,1-1.55,1L705,38.22a12,12,0,0,1-1,1.05l.57,2.44a1.4,1.4,0,0,1-.81,1.59l-2.36,1.11,1.22,1.37a1.58,1.58,0,0,0,1.83.37l3.3-1.54a1.41,1.41,0,0,0,.8-1.59l-.56-2.45a10.47,10.47,0,0,0,1-1l2.62.22a1.49,1.49,0,0,0,1.55-1l1.17-3.32A1.42,1.42,0,0,0,713.71,33.78Z" transform="translate(-10.06 -5.35)"/><ellipse class="cls-15" cx="699.41" cy="32.41" rx="2.88" ry="3.03" transform="translate(582.74 719.05) rotate(-83.9)"/><path class="cls-16" d="M707,13.67a30.2,30.2,0,0,0-3-.92c13.82,5.59,21.05,20.44,16.25,34.11a27.65,27.65,0,0,1-17.86,17,5.9,5.9,0,0,0-3.8,3.6L697,72.07l4,1.3,1.61-4.57a5.86,5.86,0,0,1,3.8-3.6,27.67,27.67,0,0,0,17.86-17c4.91-14-2.79-29.24-17.25-34.5Z" transform="translate(-10.06 -5.35)"/><path class="cls-17" d="M688.2,91.65,671,86l-.35,1a5.56,5.56,0,0,0,3.7,7.08l6.13,2a5.86,5.86,0,0,0,7.4-3.44Z" transform="translate(-10.06 -5.35)"/><path class="cls-18" d="M684.21,90.34l-.36,1a5.86,5.86,0,0,1-7.39,3.45l4,1.3a5.86,5.86,0,0,0,7.4-3.44l.36-1Z" transform="translate(-10.06 -5.35)"/><path class="cls-12" d="M699.68,77.18,671,67.77,666.31,81a4.18,4.18,0,0,0,2.78,5.31L689.49,93A4.4,4.4,0,0,0,695,90.4Z" transform="translate(-10.06 -5.35)"/><path class="cls-14" d="M695.7,75.87,691.05,89.1a4.39,4.39,0,0,1-5.55,2.58l4,1.31A4.4,4.4,0,0,0,695,90.4l4.64-13.22Z" transform="translate(-10.06 -5.35)"/><path class="cls-13" d="M699.39,78a3,3,0,0,0,3.83-1.79,2.87,2.87,0,0,0-1.91-3.66l-28.73-9.41a3,3,0,0,0-3.83,1.79,2.9,2.9,0,0,0,1.92,3.67Z" transform="translate(-10.06 -5.35)"/><path class="cls-13" d="M697.05,84.68l-28.73-9.4a1.3,1.3,0,0,1-.86-1.66,1.37,1.37,0,0,1,1.73-.81l28.72,9.41a1.3,1.3,0,0,1,.87,1.66A1.36,1.36,0,0,1,697.05,84.68Z" transform="translate(-10.06 -5.35)"/><path class="cls-13" d="M695.13,90.13l-28.72-9.4a1.31,1.31,0,0,1-.87-1.66,1.38,1.38,0,0,1,1.73-.81L696,87.67a1.3,1.3,0,0,1,.87,1.66A1.37,1.37,0,0,1,695.13,90.13Z" transform="translate(-10.06 -5.35)"/><path class="cls-19" d="M701.31,72.55l-4-1.31a2.88,2.88,0,0,1,1.92,3.67,3,3,0,0,1-3.83,1.78l4,1.31a3,3,0,0,0,3.83-1.79A2.87,2.87,0,0,0,701.31,72.55Z" transform="translate(-10.06 -5.35)"/><path class="cls-20" d="M163,10.13" transform="translate(-10.06 -5.35)"/><path d="M157.79,102h-3.56q-3.12,0-7,.28-2.43.18-3.36.18a9.33,9.33,0,0,1-5.39-1.42,4.32,4.32,0,0,1-2.08-3.72,3.34,3.34,0,0,1,.92-2.5,6.65,6.65,0,0,1,3-1.45A4.23,4.23,0,0,0,143,91.88a10.42,10.42,0,0,0,1.08-4q.41-3.45.72-13.41t.32-19.78c0-2.57-.21-4.28-.64-5.14a4.83,4.83,0,0,0-3-2.06q-3.41-1.2-3.41-4.09a3.88,3.88,0,0,1,2.35-3.51A14,14,0,0,1,147,38.62c.92,0,2,0,3.26,0q4.16.14,6,.14,7.08,0,16-.41c1.25-.06,2.82-.09,4.7-.09q11.31,0,17.89,2.38a27.29,27.29,0,0,1,14.73,12,34.17,34.17,0,0,1,4.4,17.71,34.55,34.55,0,0,1-1.63,10.4,30.94,30.94,0,0,1-4.4,9,30.19,30.19,0,0,1-15.82,10.83,42.34,42.34,0,0,1-12.65,1.84l-6-.19-5.14-.13Q162.34,102,157.79,102Zm10.38-49.75V87.77c0,1.93.44,3.3,1.33,4.11s2.37,1.22,4.45,1.22q14.43,0,14.43-20.38,0-11.25-3.36-17.44-3.71-6.84-12.55-6.84a5,5,0,0,0-3.34.87A3.82,3.82,0,0,0,168.17,52.25Z" transform="translate(-10.06 -5.35)"/><path d="M245.68,59.45V86.12a12.91,12.91,0,0,0,.61,4.64,6.45,6.45,0,0,0,2.5,2.71,8,8,0,0,1,2.05,1.72,3,3,0,0,1,.52,1.81q0,5.93-16.16,5.92a59.06,59.06,0,0,1-13.79-1.28,5.77,5.77,0,0,1-2.8-1.61,3.75,3.75,0,0,1-1.06-2.62,3,3,0,0,1,.54-1.92,15,15,0,0,1,2.77-2.21A5.82,5.82,0,0,0,223,89.84a29.77,29.77,0,0,0,.64-7.11c0-1-.07-2.9-.22-5.67s-.26-4.39-.32-4.85c-.2-1.25-1.12-2.21-2.77-2.89-2.05-.82-3.07-2-3.07-3.67,0-1.93,1.34-3.36,4-4.31A94,94,0,0,1,233.17,58,49.5,49.5,0,0,1,243,56.61C244.77,56.61,245.68,57.56,245.68,59.45Zm-9.79-20.1a13.4,13.4,0,0,1,6.82,1.49,4.53,4.53,0,0,1,2.52,4c0,2.36-1.27,4.22-3.8,5.6a30.36,30.36,0,0,1-14.59,3.26,11,11,0,0,1-5.73-1.29,5.09,5.09,0,0,1-2.87-4.59q0-3.95,6.08-6.19A33.37,33.37,0,0,1,235.89,39.35Z" transform="translate(-10.06 -5.35)"/><path d="M306,70.65,293.18,93.79a36.31,36.31,0,0,1-5,7.46,6.22,6.22,0,0,1-4.45,2.08,4.87,4.87,0,0,1-3.76-1.56,35.84,35.84,0,0,1-5.29-7.07L260.61,70a10.94,10.94,0,0,0-2.2-2.92,7,7,0,0,0-3-1.35c-2.5-.68-3.75-1.93-3.75-3.77s1.55-3.22,4.65-4.08,8-1.29,14.68-1.29q8.4,0,12.38,1.13t4,3.46a4.2,4.2,0,0,1-1.88,3.17A9.7,9.7,0,0,0,284,65.83a2.25,2.25,0,0,0-.35,1.29q0,1.56,2.18,5.19t4.05,3.53a2.63,2.63,0,0,0,2-.87,33.43,33.43,0,0,0,2.86-4.5,9.2,9.2,0,0,0,1.54-4,4.07,4.07,0,0,0-1.59-2.61A4.61,4.61,0,0,1,293,60.74c0-1.47,1.05-2.52,3.14-3.17s5.53-1,10.31-1q10.08,0,10.08,4Q316.56,63,313,64a10.1,10.1,0,0,0-3.83,1.79A24.21,24.21,0,0,0,306,70.65Z" transform="translate(-10.06 -5.35)"/><path d="M345.28,59.45V86.12a12.86,12.86,0,0,0,.62,4.64,6.38,6.38,0,0,0,2.5,2.71,8.16,8.16,0,0,1,2.05,1.72A3,3,0,0,1,351,97q0,5.93-16.17,5.92A59.12,59.12,0,0,1,321,101.64a5.78,5.78,0,0,1-2.79-1.61,3.75,3.75,0,0,1-1.06-2.62,3,3,0,0,1,.54-1.92,14.61,14.61,0,0,1,2.77-2.21,5.81,5.81,0,0,0,2.17-3.44,29.16,29.16,0,0,0,.65-7.11c0-1-.08-2.9-.23-5.67s-.25-4.39-.32-4.85c-.2-1.25-1.12-2.21-2.77-2.89-2-.82-3.06-2-3.06-3.67,0-1.93,1.33-3.36,4-4.31A94.2,94.2,0,0,1,332.78,58a49.41,49.41,0,0,1,9.79-1.38C344.38,56.61,345.28,57.56,345.28,59.45Zm-9.78-20.1a13.42,13.42,0,0,1,6.82,1.49,4.53,4.53,0,0,1,2.52,4c0,2.36-1.27,4.22-3.81,5.6a30.32,30.32,0,0,1-14.58,3.26,11,11,0,0,1-5.73-1.29,5.07,5.07,0,0,1-2.87-4.59q0-3.95,6.08-6.19A33.33,33.33,0,0,1,335.5,39.35Z" transform="translate(-10.06 -5.35)"/><path d="M399.56,81.44H376.33c-1,0-1.54.41-1.54,1.24,0,2,1.17,3.86,3.49,5.62a12.16,12.16,0,0,0,7.49,2.64,18.64,18.64,0,0,0,5.26-.85A17.38,17.38,0,0,0,395.8,88a5.48,5.48,0,0,1,2.67-1.1A3.39,3.39,0,0,1,401,88.37a4.65,4.65,0,0,1,1.24,3q0,3.3-4.45,6.38a31,31,0,0,1-18.14,5.46q-10.38,0-17.4-5.6A23.39,23.39,0,0,1,356.6,91a22,22,0,0,1-2.91-10.93,21.29,21.29,0,0,1,5-13.86,26.4,26.4,0,0,1,11.07-7.94,29.82,29.82,0,0,1,10.93-2,25.76,25.76,0,0,1,16,5A20.41,20.41,0,0,1,402,67.12a14.56,14.56,0,0,1,2.33,7.53A8.33,8.33,0,0,1,403,79.54,4,4,0,0,1,399.56,81.44ZM385.27,36.37a23.89,23.89,0,0,1,8,1.24,7.13,7.13,0,0,1,2.82,1.7,3,3,0,0,1,1,2.2c-.07,1.41-1.47,3.07-4.2,5a27.64,27.64,0,0,1-16.51,5.37q-5.1,0-5.1-3.39a2.87,2.87,0,0,1,.52-1.86,20.85,20.85,0,0,1,3-2.37,27,27,0,0,0,2.72-2,1.55,1.55,0,0,0,.5-1.13,3.33,3.33,0,0,0-.6-1.38,1.27,1.27,0,0,1-.19-.68c0-.77.74-1.4,2.22-1.91A19.22,19.22,0,0,1,385.27,36.37Zm-7.66,36.49h5c2.1,0,3.16-.91,3.16-2.71a5.53,5.53,0,0,0-1.53-4,5.39,5.39,0,0,0-4-1.56,5.23,5.23,0,0,0-4.35,2,6.1,6.1,0,0,0-1.48,3.81,2.29,2.29,0,0,0,.72,1.93A4.26,4.26,0,0,0,377.61,72.86Z" transform="translate(-10.06 -5.35)"/><path d="M430.65,56.56c1.75,0,2.81.23,3.19.69s.72,1.93,1,4.41c.16,1.34.67,2,1.53,2,.66,0,1.28-.45,1.88-1.33q3.94-5.74,10.33-5.74A10.26,10.26,0,0,1,456,59.32a10.09,10.09,0,0,1,2.28,3.42,9.51,9.51,0,0,1-.2,8.44,11.38,11.38,0,0,1-10.58,6.54,9.7,9.7,0,0,1-4.23-.82,21.49,21.49,0,0,1-4.47-3.35,2.93,2.93,0,0,0-1.93-1A1.75,1.75,0,0,0,435,74a27.2,27.2,0,0,0-.42,6.08,53.74,53.74,0,0,0,.54,9.45,3.58,3.58,0,0,0,1,1.91,7.68,7.68,0,0,0,2.64,1.08q4.46,1.23,4.45,4.31a4.44,4.44,0,0,1-1.43,3.28A7.22,7.22,0,0,1,438,102a79.06,79.06,0,0,1-13.94.92q-8.75,0-13.3-1.42-4.05-1.29-4.05-4.45,0-2.4,3-4.27a7.18,7.18,0,0,0,2-1.59,4.26,4.26,0,0,0,.74-2q.79-4.17.79-15.46a6.55,6.55,0,0,0-.49-3,3.58,3.58,0,0,0-2-1.44q-3.51-1.29-3.51-3.72a4.53,4.53,0,0,1,2.43-3.79,30.74,30.74,0,0,1,8.1-3.14A51.42,51.42,0,0,1,430.65,56.56Z" transform="translate(-10.06 -5.35)"/><path d="M492.54,68.31V83.83A6.77,6.77,0,0,0,494,88.32a4.63,4.63,0,0,0,3.73,1.75,11.92,11.92,0,0,0,5.1-1.65,3,3,0,0,1,1.48-.42,2.77,2.77,0,0,1,2.17,1.33,4.78,4.78,0,0,1,1,2.9q0,2.83-3.36,5.46a26.57,26.57,0,0,1-17,5.55q-7.92,0-12.71-4.15a13.77,13.77,0,0,1-4.79-11V66.94c0-.71-.09-1.14-.28-1.31a2.38,2.38,0,0,0-1.4-.25h-5.1a2.62,2.62,0,0,1-1.83-.44,3.42,3.42,0,0,1-.39-2v-2a2.27,2.27,0,0,1,1.14-2l22.64-13.22a4.6,4.6,0,0,1,2.07-.41h4a2,2,0,0,1,1.65.52,3.62,3.62,0,0,1,.42,2.09V54a2.45,2.45,0,0,0,.47,1.79,3.33,3.33,0,0,0,2,.41h9.15a3.22,3.22,0,0,1,2.37.62,4.32,4.32,0,0,1,.55,2.64v2.71a4.89,4.89,0,0,1-.7,3.05,3.1,3.1,0,0,1-2.52.85h-8.94a2.79,2.79,0,0,0-1.88.46A2.36,2.36,0,0,0,492.54,68.31Z" transform="translate(-10.06 -5.35)"/><path d="M555.07,81.44H531.84c-1,0-1.53.41-1.53,1.24q0,3,3.48,5.62a12.18,12.18,0,0,0,7.49,2.64,18.76,18.76,0,0,0,5.27-.85A17.52,17.52,0,0,0,551.32,88,5.48,5.48,0,0,1,554,86.9a3.43,3.43,0,0,1,2.52,1.47,4.69,4.69,0,0,1,1.23,3q0,3.3-4.45,6.38a31,31,0,0,1-18.14,5.46q-10.38,0-17.4-5.6A23.2,23.2,0,0,1,512.12,91a21.92,21.92,0,0,1-2.92-10.93,21.29,21.29,0,0,1,5-13.86,26.37,26.37,0,0,1,11.08-7.94,29.8,29.8,0,0,1,10.92-2,25.81,25.81,0,0,1,16,5,20.7,20.7,0,0,1,5.34,5.88,14.64,14.64,0,0,1,2.32,7.53,8.4,8.4,0,0,1-1.33,4.89A4.07,4.07,0,0,1,555.07,81.44Zm-21.94-8.58h5c2.11,0,3.16-.91,3.16-2.71a5.53,5.53,0,0,0-1.53-4,5.36,5.36,0,0,0-4-1.56,5.2,5.2,0,0,0-4.35,2,6.11,6.11,0,0,0-1.49,3.81,2.29,2.29,0,0,0,.72,1.93A4.29,4.29,0,0,0,533.13,72.86Z" transform="translate(-10.06 -5.35)"/><path d="M591.8,68.31V83.83a6.77,6.77,0,0,0,1.46,4.49A4.63,4.63,0,0,0,597,90.07a11.92,11.92,0,0,0,5.1-1.65,3,3,0,0,1,1.48-.42,2.77,2.77,0,0,1,2.17,1.33,4.78,4.78,0,0,1,1,2.9q0,2.83-3.36,5.46a26.57,26.57,0,0,1-17,5.55q-7.92,0-12.71-4.15a13.77,13.77,0,0,1-4.79-11V66.94c0-.71-.09-1.14-.27-1.31a2.44,2.44,0,0,0-1.41-.25h-5.1a2.57,2.57,0,0,1-1.82-.44,3.33,3.33,0,0,1-.4-2v-2a2.27,2.27,0,0,1,1.14-2l22.64-13.22a4.6,4.6,0,0,1,2.07-.41h4a2,2,0,0,1,1.65.52,3.62,3.62,0,0,1,.42,2.09V54a2.45,2.45,0,0,0,.47,1.79,3.35,3.35,0,0,0,2,.41h9.14a3.22,3.22,0,0,1,2.37.62,4.25,4.25,0,0,1,.55,2.64v2.71a4.89,4.89,0,0,1-.7,3.05,3.1,3.1,0,0,1-2.52.85h-8.94a2.79,2.79,0,0,0-1.88.46A2.36,2.36,0,0,0,591.8,68.31Z" transform="translate(-10.06 -5.35)"/><path d="M654.33,81.44H631.1c-1,0-1.53.41-1.53,1.24q0,3,3.48,5.62a12.18,12.18,0,0,0,7.49,2.64,18.76,18.76,0,0,0,5.27-.85A17.38,17.38,0,0,0,650.58,88a5.48,5.48,0,0,1,2.67-1.1,3.43,3.43,0,0,1,2.52,1.47,4.69,4.69,0,0,1,1.23,3q0,3.3-4.44,6.38a31,31,0,0,1-18.15,5.46q-10.38,0-17.4-5.6A23.2,23.2,0,0,1,611.38,91a21.92,21.92,0,0,1-2.92-10.93,21.29,21.29,0,0,1,5-13.86,26.37,26.37,0,0,1,11.08-7.94,29.8,29.8,0,0,1,10.92-2,25.81,25.81,0,0,1,16,5,20.56,20.56,0,0,1,5.34,5.88,14.54,14.54,0,0,1,2.32,7.53,8.33,8.33,0,0,1-1.33,4.89A4.07,4.07,0,0,1,654.33,81.44Zm-21.94-8.58h5c2.11,0,3.16-.91,3.16-2.71a5.53,5.53,0,0,0-1.53-4,5.36,5.36,0,0,0-4-1.56,5.2,5.2,0,0,0-4.35,2,6.11,6.11,0,0,0-1.49,3.81,2.29,2.29,0,0,0,.72,1.93A4.29,4.29,0,0,0,632.39,72.86Z" transform="translate(-10.06 -5.35)"/></svg>