<svg height="511pt" viewBox="1 0 511.9999 511" width="511pt" xmlns="http://www.w3.org/2000/svg"><path d="m501.003906 234.910156-126.550781 73.0625c-3.828125 2.210938-8.597656-.546875-8.597656-4.964844v-39.304687c0-3.199219-2.597657-5.796875-5.796875-5.796875h-107.28125v-55.925781h107.28125c3.199218 0 5.796875-2.589844 5.796875-5.785157v-39.320312c0-4.414062 4.769531-7.175781 8.597656-4.960938l105.261719 60.777344 21.289062 12.28125c3.828125 2.214844 3.828125 7.734375 0 9.9375zm0 0" fill="#5db33a"/><path d="m479.714844 212.691406-105.261719 60.765625c-3.828125 2.214844-8.597656-.546875-8.597656-4.964843v-39.304688c0-3.199219-2.597657-5.796875-5.796875-5.796875h-107.28125v-21.410156h107.28125c3.199218 0 5.796875-2.589844 5.796875-5.785157v-39.320312c0-4.414062 4.769531-7.175781 8.597656-4.960938zm0 0" fill="#6dc54a"/><path d="m329.898438 146.644531h-39.308594c-3.195313 0-5.785156 2.597657-5.785156 5.796875v322.289063c0 7.71875-3.136719 14.710937-8.191407 19.777343-.945312.945313-1.960937 1.816407-3.027343 2.609376-4.667969 3.5-10.476563 5.582031-16.75 5.582031-15.4375 0-27.964844-12.527344-27.964844-27.96875v-322.289063c0-3.199218-2.589844-5.796875-5.789063-5.796875h-39.304687c-4.417969 0-7.175782-4.78125-4.976563-8.597656l73.074219-126.5625c2.203125-3.816406 7.722656-3.816406 9.925781 0l11.785157 20.417969 61.285156 106.144531c2.203125 3.816406-.558594 8.597656-4.972656 8.597656zm0 0" fill="#60c8dd"/><path d="m329.898438 146.644531h-39.308594c-3.195313 0-5.785156 2.597657-5.785156 5.796875v322.289063c0 7.71875-3.136719 14.710937-8.191407 19.777343-.945312.945313-1.960937 1.816407-3.027343 2.609376-6.808594-5.097657-11.214844-13.226563-11.214844-22.386719v-322.289063c0-3.199218-2.589844-5.796875-5.789063-5.796875h-39.304687c-4.417969 0-7.175782-4.78125-4.972656-8.597656l61.28125-106.144531 61.285156 106.144531c2.203125 3.816406-.558594 8.597656-4.972656 8.597656zm0 0" fill="#7cd2e3"/><path d="m284.804688 344.019531v130.710938c0 15.707031-12.953126 28.386719-28.75 27.960937-15.234376-.429687-27.183594-13.300781-27.183594-28.539062v-74.1875c0-30.890625-25.042969-55.945313-55.945313-55.945313h-20.996093c-3.195313 0-5.785157 2.589844-5.785157 5.789063v39.316406c0 4.414062-4.769531 7.175781-8.597656 4.964844l-126.550781-73.0625c-3.824219-2.214844-3.824219-7.734375 0-9.9375l26.558594-15.328125 99.992187-57.734375c3.828125-2.210938 8.597656.550781 8.597656 4.964844v39.308593c0 3.195313 2.589844 5.792969 5.796875 5.792969h76.929688v-.019531h.007812c30.890625.011719 55.925782 25.054687 55.925782 55.945312zm0 0" fill="#d63030"/><path d="m284.804688 344.019531v90.105469c0 15.707031-12.953126 28.382812-28.75 27.957031-15.234376-.425781-27.183594-13.296875-27.183594-28.535156v-74.1875c0-30.890625-25.042969-55.945313-55.945313-55.945313h-20.996093c-3.195313 0-5.785157 2.589844-5.785157 5.785157v39.320312c0 4.414063-4.769531 7.175781-8.597656 4.960938l-99.992187-57.71875 99.992187-57.734375c3.828125-2.210938 8.597656.550781 8.597656 4.964844v39.308593c0 3.195313 2.589844 5.792969 5.796875 5.792969h76.929688v-.019531h.007812c30.890625.011719 55.925782 25.054687 55.925782 55.945312zm0 0" fill="#f44545"/><path d="m505.0625 217.9375-73.324219-42.332031c-3.886719-2.242188-8.851562-.914063-11.09375 2.964843-2.246093 3.886719-.914062 8.851563 2.972657 11.097657l69.75 40.269531-119.390626 68.929688v-35.164063c0-7.675781-6.242187-13.917969-13.917968-13.917969h-67.132813v-39.683594h67.132813c7.675781 0 13.917968-6.242187 13.917968-13.90625v-35.1875l23.257813 13.429688c3.886719 2.246094 8.851563.914062 11.09375-2.972656 2.246094-3.878906.914063-8.84375-2.972656-11.085938l-26.839844-15.5c-9.285156-5.359375-20.78125 1.402344-20.78125 11.996094v36.984375h-64.808594v-39.09375h36.972657c10.625 0 17.339843-11.539063 12.007812-20.78125l-73.070312-126.558594c-5.339844-9.230469-18.652344-9.238281-23.996094 0l-27.753906 48.066407c-2.246094 3.890624-.914063 8.851562 2.972656 11.097656 3.886718 2.242187 8.851562.914062 11.09375-2.976563l25.683594-44.484375 68.929687 119.394532h-35.175781c-7.664063 0-13.90625 6.242187-13.90625 13.917968v148.992188c-10.039063-11.257813-23.988282-18.960938-39.691406-20.960938v-128.03125c0-7.675781-6.234376-13.917968-13.910157-13.917968h-35.171875l28.015625-48.535157c2.246094-3.878906.914063-8.851562-2.972656-11.097656-3.890625-2.242187-8.851563-.902344-11.097656 2.976563l-30.078125 52.117187c-5.335938 9.175781 1.335937 20.78125 11.988281 20.78125h36.984375v125.207031h-66.484375v-36.980468c0-7.644532-6.222656-13.867188-13.855469-13.867188-5.199218 0 4.632813-4.804688-133.464844 74.929688-9.230468 5.304687-9.289062 18.628906-.007812 24.007812l37.164062 21.460938c3.886719 2.234374 8.851563.902343 11.09375-2.976563 2.246094-3.886719.914063-8.851563-2.972656-11.09375l-33.589844-19.390625 119.390626-68.929688v35.167969c0 7.671875 6.242187 13.917969 13.917968 13.917969 85.257813 0 79.308594-.328125 85.050782.667969 22.503906 3.878906 39.691406 23.542969 39.691406 47.132812 0 85.007813-.125 79.179688.292968 80.6875-.425781 1.53125-.292968-1.839843-.292968 50.023438 0 11.597656-10.351563 21.804687-23.398438 19.523437-9.21875-1.746094-16.292968-10.183594-16.292968-20.101562v-74.1875c0-35.316406-28.726563-64.066406-64.066407-64.066406h-20.996093c-7.671876 0-13.90625 6.242187-13.90625 13.910156v35.171875l-59.425782-34.300781c-3.890625-2.242188-8.851562-.914063-11.097656 2.976562-2.242188 3.875-.914062 8.851562 2.976562 11.09375 68.382813 39.480469 64.828126 38.242188 69.933594 38.242188 7.632813 0 13.855469-6.222657 13.855469-13.867188v-36.984375h18.660156c26.371094 0 47.824219 21.460937 47.824219 47.824219v74.765625c0 20.097656 16.425781 36.089843 36.085938 36.089843 19.898437 0 36.089843-16.191406 36.089843-36.089843 0-47.296875 0-172.195313 0-208.703125h64.808594v36.980468c0 10.636719 11.550781 17.324219 20.78125 12l126.539063-73.0625c9.265624-5.347656 9.25-18.671874.007812-24.007812zm0 0"/></svg>