<?xml version="1.0" encoding="utf-8"?>
<!-- Generator: Adobe Illustrator 23.0.3, SVG Export Plug-In . SVG Version: 6.00 Build 0)  -->
<svg version="1.1" id="Capa_1" xmlns="http://www.w3.org/2000/svg" xmlns:xlink="http://www.w3.org/1999/xlink" x="0px" y="0px"
	 viewBox="0 0 1685.14 1073.14" style="enable-background:new 0 0 1685.14 1073.14;" xml:space="preserve">
<style type="text/css">
	.st0{fill:#D07872;}
	.st1{fill:#E5B230;}
	.st2{fill:#2D7AA8;}
	.st3{fill:#C12C3A;}
	.st4{fill:none;stroke:#D8D9DD;stroke-width:0.75;stroke-miterlimit:10;}
	.st5{fill:none;stroke:#850F5B;stroke-width:0.5;stroke-miterlimit:10;}
	.st6{fill:none;stroke:#850F5B;stroke-width:0.75;stroke-miterlimit:10;}
	.st7{fill:#27A0C0;}
	.st8{fill:none;stroke:#AEADB3;stroke-width:0.75;stroke-miterlimit:10;}
	.st9{fill:none;stroke:#C2C3C9;stroke-width:0.75;stroke-miterlimit:10;}
	.st10{fill:#DD9C30;}
	.st11{fill:none;stroke:#EDEEF0;stroke-miterlimit:10;}
</style>
<path class="st0" d="M242.16,828.02c-7.32-3-13.84-2.17-16.21-2.01c-1.54,0.1-2.82,0.52-3.51,0.8l-89.1,38.97
	c0.88-8.21,1.64-14.7,2.14-18.86c1.12-9.3,1.74-13.59,1.29-20.04c-0.38-5.3-0.57-7.94-1.93-11.14
	c-4.27-10.01-14.62-13.8-16.93-14.57c-1.74-0.58-10.18-3.23-19.82,0.32c-2.72,1-9.83,3.62-13.96,10.93
	c-1.81,3.2-2.46,6.25-2.71,8.29L54.7,992.21c0,0,0.21,24,20.5,28.07c20.29,4.07,29.93-8.29,31.57-10.71c1.64-2.43,3-6.29,3.79-9.29
	s3.79-23.57,3.79-23.57l2.36-18.86c0,0,0.4-3.41,2.94-0.72c2.54,2.69,3.68,3.94,3.68,3.94l66.91,71.17c0,0,6.38,6.11,17.04,6.21
	s18.96-8.46,18.96-8.46s3.32-3.38,5.57-6.86c2.25-3.48,2.46-4.29,3.64-8.25c0.96-5.14,0-11.09,0-11.09s-0.21-4.66-4.82-10.07
	c-4.61-5.41-72.32-76.77-72.32-76.77s-1.45-1.21-0.09-2.05c5.09-1.95,5.86-2.25,5.86-2.25l31.45-13.02l34.36-15.29
	c14.17-6.88,37.29-20.54,25-43.89C254.87,840.45,250.87,831.59,242.16,828.02z"/>
<path class="st1" d="M344.62,800.17c-18.43-2.15-26.53,14.11-27.84,17.04c-0.12,0.28-0.21,0.55-0.27,0.85
	c-1.84,8.93-33.95,164.5-34.67,169.5c-0.75,5.14-1.39,16.07-1.39,16.07c2.14,11.89,9.21,15.75,9.21,15.75s6.43,6.11,24.64,5.57
	c18.21-0.54,22.18-18.21,22.18-18.21s33.94-167.46,33.94-180.11C370.42,814.53,360.68,802.03,344.62,800.17z"/>
<path class="st2" d="M559.59,810.24c-45.26-35.33-113.46-16.26-144.71-5.35c-26.43,8.14-22,32.43-22,32.43l44.86,174.99
	c0,0,4.29,17.79,28.29,15.86c0,0,100.29-14.29,121.71-77.14c4.78-14.01,6.21-27.21,7.07-37.07c0.86-9.86-2.87-44.51-8.14-64.29
	C586.32,848.41,579.22,825.56,559.59,810.24z M539.73,906.33c-1,13-1.22,13.19-3.43,20.53c-2.29,7.59-11.89,18.05-11.89,18.05
	s-16.25,14.96-39.96,20.89c-0.99,0.25-1.29,0-1.29,0l-28.13-113.15c-0.21-0.86,0.29-1.72,1.14-1.96c1.98-0.56,6.08-1.56,13.28-2.75
	c11.71-1.93,33.21-1.71,37.71-0.86c4.5,0.86,23.14,2.64,29.57,29.93C536.73,877.02,540.73,893.33,539.73,906.33z"/>
<path class="st3" d="M726.59,798.02c-1.29,0-31.92-1.84-45.71,3.71c0,0-22,6.43-32.57,19.43c0,0-14.39,14.04-17.18,33.75
	c-1.6,11.83-1.68,35.54,20.89,56.79c8.14,8.31,35.72,25.66,41.45,29.59c26.26,18.01,19.41,51.94-11.77,22.05
	c-10.88-10.43-21.51-24.53-29.68-25.18c-9.33-0.75-38.14,8.14-30.14,38.71c3.81,12.96,46.25,58.17,85,54
	c6.71-0.14,29.71-2.86,41.71-18.14c2.71-3.14,14.43-16.29,16-39.14c0.29-13.57,0-15,0-15s-1-29.71-22.86-50
	c-3.43-3.43-17.14-15.29-35.43-24.71c-18.29-9.43-25-21.86-14.71-26.43c10.29-4.57,29.86-3.71,29.86-3.71s0.29-0.71,2.57,1.43
	c0,0,8.57,13.43,32.29,5.29c23.71-8.14,14.14-36.43,14.14-36.43S763.44,801.88,726.59,798.02z"/>
<path class="st0" d="M1042.56,984.1c-1.16-0.5-2.39-0.82-3.65-0.96c-1.93-0.21-4.34-0.37-15.18,0.6
	c-14.43,1.29-67.14,6.43-67.14,6.43s-3.43,1.29-1-4.86s59.57-135.43,59.57-135.43s14.14-36.71-20-43.86c0,0-4.71-1.14-16.43,0.57
	c-11.71,1.71-92.86,19.43-92.86,19.43s-23.43,3-19.43,30.86c4,27.86,33.71,22.29,33.71,22.29l41.86-9.43c0,0,3.57-1.86,1.86,2.14
	c-1.57,3.66-48.05,118.69-55.88,138.09c-0.95,2.35-1.49,4.84-1.57,7.38c-0.25,7.71,1.58,22.99,18.75,29.38
	c24.85-0.29,133.85-9.57,133.85-9.57s16.23-1.06,21.68-18.89c0.46-1.5,0.67-3.05,0.7-4.61
	C1061.52,1007.28,1060.35,991.78,1042.56,984.1z"/>
<path class="st1" d="M1181.16,775.45c0,0-10.86-20.71-54.43-11.29c-10.71,2.29-38.14,9.29-56.43,28.86c-6,7-24,29.57-26.29,61.57
	c-6.71,51.21,10.64,118.93,80.29,135.14c54,10.57,117-49.43,122.57-110.86C1250.3,848.27,1236.59,784.31,1181.16,775.45z
	 M1190.63,866.73c-2.39,17.86-8,34-9.29,35.71c-70.79,109.21-133.14-86.43-32.43-83.86c3.57,8.86,14,10.86,14,10.86
	C1185.12,829.14,1193.33,846.59,1190.63,866.73z"/>
<path class="st2" d="M1452.66,780.31c-23.5-1.43-30.43,15.14-30.43,15.14s-1.79,3.57-1.86,9.29s0.5,86.86,0.5,86.86
	c2.07,2.26-98.92-86.5-117.59-90.46c-15.2-3.23-29.36,5.84-31.84,17.4c0,0-1.71,10.64,0,25.78c1.71,15.14,18,97.71,21.14,106
	c0.57,2,12.86,50,16.57,60.29c3.71,10.29,12,18.29,20.57,18c8.57-0.29,36.5,1.29,34.14-31.93c-1.71-4.5-15.43-52.93-16.29-57.21
	c-0.86-4.29-10.71-43.04-10.71-45.24s1.31-2.01,2.09-1.31c0.78,0.7,97.34,95.13,97.34,95.13s14.21,9.43,29.86-2.29
	c0.07,0.07,10.14-6.21,11.29-19c-0.07-0.29,0-159.57,0-159.57S1476.16,781.74,1452.66,780.31z"/>
<path class="st3" d="M1658.09,769.88c-1.93-1.5-10.14-6.93-24.07-9.64s-23.14-4.5-23.14-4.5l-26.56-4c0,0-19.31-2.71-25.01,0
	c0,0-17.14,3.83-16.71,28.48c-0.21,1.09-40.29,160.73-40.29,160.73s-5.79,27.86,19.5,34.93c2.14,0.43,80.79,10.5,80.79,10.5
	s16.29-1.93,22.29-24c0.21-0.43,5.36-26.14-21-31.07c-2.36-0.43-38.36-6-38.36-6s-1.53-0.21-0.13-4.26l9.24-36.56
	c0,0,0.35-1.15,2.57-0.62s31.39,5.65,31.39,5.65s15.86,3.43,25.71-5.68c9.86-9.11,17.14-33.96-5.43-46.11
	c0,0.04-5.45-2.23-10.64-3.39c-5.25-1.18-29.25-5.57-29.25-5.57s-0.36-0.11-0.04-1.79s4.07-17.32,4.07-17.32s0.19-0.77,0.86-0.66
	c0.67,0.11,40.49,9.45,40.49,9.45s12.07,2.14,20.36-3.07c0.21,0,11.21-6.71,12-20.57C1666.73,794.59,1668.8,779.38,1658.09,769.88z"
	/>
<path class="st4" d="M1006.71,730.14"/>
<path class="st5" d="M-684.67,283.87"/>
<path class="st6" d="M1015.54,324.82"/>
<path class="st6" d="M609.83,140.97"/>
<path class="st6" d="M837.67,805.17"/>
<path class="st6" d="M837.66,693.99"/>
<path class="st6" d="M834.72,664.6"/>
<path class="st6" d="M839.9,664.6"/>
<path class="st6" d="M850.08,366.67"/>
<path class="st6" d="M598.15,433.17"/>
<path class="st6" d="M514.15,381.31"/>
<path class="st6" d="M503.22,220.6"/>
<polygon class="st7" points="962.29,735.38 1047.79,685.81 1047.79,572.88 962.29,621.95 "/>
<path class="st7" d="M1073.94,670.17l91.71-52.29c0,0,7.82-3.54,8.36-13.82c0-10.29,0-104.89,0-104.89l-100.07,58.29V670.17z"/>
<polygon class="st7" points="1174.01,370.17 1074.15,429.31 1074.15,528.31 1174.01,470.88 "/>
<path class="st4" d="M1074.65,284.38l-0.5,115.14l99.86-57.21l0.21-108.43c0,0-0.36-10.57-8.93-15.5
	c-9.08-5.22-89.21-51.14-89.21-51.14l-102.29,58.71L1074.65,284.38z"/>
<path class="st8" d="M1172.29,226.85l-97.34,57.37L1172.29,226.85z"/>
<polygon class="st7" points="1047.79,445.17 962.29,495.52 962.29,593.45 1047.79,543.52 "/>
<polygon class="st7" points="1048.65,298.81 961.87,348.95 962.29,464.45 1047.79,415.17 "/>
<path class="st9" d="M935.22,511.38 M935.22,609.38 M833.51,569.24 M839.72,568.44"/>
<path class="st7" d="M837.78,536.98l97.1-55.87c0.1-0.06,0.16-0.16,0.16-0.27V366.17c0,0,0-0.47-0.29-1.11l-96.99,53.74
	L837.78,536.98z"/>
<path class="st10" d="M837.78,418.8"/>
<path class="st10" d="M837.8,536.98"/>
<polygon class="st1" points="625.22,684.67 712.11,735.82 712.39,622.98 625.22,572.52 "/>
<polygon class="st1" points="712.22,499.1 625.65,449.1 625.65,543.38 712.39,593.24 "/>
<path class="st1" d="M626.66,298.54c-0.51-0.37-1.72-1.89-0.39-3.16c-0.47,0.28-0.76,0.79-0.76,1.34V415.1l86.88,49.57l-0.03-115.71
	l-85.32-50.13C627.01,298.8,626.75,298.61,626.66,298.54z"/>
<polygon class="st1" points="510.78,382.72 500.94,377.02 500.94,472.38 597.74,527.51 597.58,432.95 "/>
<path class="st1" d="M499.87,606.51c0,3.72,2.12,7.05,5.21,9.03l92.57,53.42V556.1l-97.64-56.5L499.87,606.51z"/>
<path class="st1" d="M935.22,637.38l-96.05,55.71c-1.02,0.59-2.17,0.9-3.35,0.9h-0.11c-1.16,0-2.31-0.31-3.31-0.9l-95.47-56.46
	l0.14,112.93l94.03,53.28c2.04,1.15,4.3,1.73,6.57,1.72v-0.19"/>
<path class="st7" d="M837.67,693.82l0.01,110.73c2.26-0.01,4.52-0.6,6.54-1.76l91.95-53l-0.93-112.67"/>
<line class="st10" x1="837.67" y1="804.36" x2="837.67" y2="803.6"/>
<path class="st6" d="M459.65,197.45"/>
<path class="st6" d="M481.22,237.67"/>
<g>
	<path class="st7" d="M935.35,511.28v98l-94.84,54.98c-0.84,0.48-2.83,1.42-2.82,0.89c-0.01-1.98,0.09-95.94,0.1-95.91
		c0,0,0.82-0.22,1.73-0.72C840.43,568,935.35,511.28,935.35,511.28z"/>
</g>
<path class="st1" d="M837.8,569.23c0,0-1.7,0.71-3.97,0.02c-1.33-0.41-96.69-55.39-96.69-55.39v94.34l98.44,56.7
	c0,0,1.18,0.67,2.76,0.34"/>
<path class="st10" d="M837.76,418.79"/>
<path class="st6" d="M745.49,352.06"/>
<path class="st6" d="M739.22,355.86"/>
<path class="st6" d="M743.62,353.2"/>
<path class="st10" d="M837.67,804.17"/>
<polygon class="st1" points="736.94,360.89 837.76,418.79 837.8,536.98 736.94,477.52 "/>
<path class="st7" d="M1075.02,284.25l97.68-58.04c0,0,1.62,3.34,1.91,6.89c0.27,3.34-0.17,109.46-0.17,109.46l-100.59,57.64
	L1075.02,284.25z"/>
<path class="st8" d="M1026.65,266.24"/>
<g>
	<polygon class="st3" points="947.94,240.1 860.72,290.02 961.87,348.95 1048.65,298.81 	"/>
	<path class="st3" d="M837.78,418.8c-0.17,0.09,97.01-53.74,97.01-53.74c-0.29-0.65-0.88-1.48-2.07-2.18
		c-4.77-2.45-96.28-54.92-99.69-56.87c-0.06-0.04-0.14-0.03-0.2,0c0,0-95.9,54.83-95.9,54.87v0.01L837.78,418.8l-0.02-0.01"/>
	<path class="st3" d="M721.37,240.95l-95.07,54.41c-0.01,0.01-0.02,0.02-0.03,0.02c-1.33,1.27-0.12,2.79,0.39,3.16
		c0.09,0.07,0.43,0.3,0.46,0.32l85.25,50.09l97.43-56.57L721.37,240.95z"/>
	<polygon class="st3" points="835.08,175.52 747.37,225.67 836.37,276.81 923.08,226.38 	"/>
	<polygon class="st3" points="948.65,212.02 1051.08,152.02 963.22,101.95 860.79,161.1 	"/>
	<path class="st3" d="M938.83,88.11l-94.62-54.88c-4.07-2.36-9.08-2.36-13.15-0.02l-95.32,54.95l100.02,58.39L938.83,88.11z"/>
	<polygon class="st3" points="810.22,161.52 708.94,103.67 623.37,153.81 722.79,211.1 	"/>
	<path class="st3" d="M1074.69,284.45l-101.68-58.47l103.07-59.17l90.16,51.75c0,0,4.57,2.87,6.47,7.64L1074.69,284.45z"/>
	<path class="st3" d="M696.1,226.25l-98.14,56.57l-90.64-53.57c0,0-7.29-3.21,0-7.29c7.29-4.07,88.93-52.5,88.93-52.5L696.1,226.25z
		"/>
</g>
<path class="st1" d="M504.93,223.76c0.01-0.01-2.56,2.48,1.34,4.88c3.92,2.41,91.47,54.19,91.47,54.19v116.36l-97.5-56.57
	l1.54-111.21c0.09-2.16,0.23-5.03,2.53-7.3c0.29-0.29,1.45-1.15,1.71-1.3"/>
<path class="st11" d="M505.22,226.34"/>
<path class="st11" d="M504.6,223.83"/>
<path class="st11" d="M504.7,223.69"/>
<rect x="1717.71" y="140.97" class="st1" width="56.49" height="56.49"/>
<rect x="1717.71" y="240.1" class="st7" width="54.43" height="54.43"/>
<rect x="1717.71" y="341.86" class="st3" width="56.49" height="56.49"/>
<rect x="1717.71" y="438.27" class="st0" width="54.43" height="54.43"/>
</svg>
