<?xml version="1.0" encoding="utf-8"?>
<!-- Generator: Adobe Illustrator 23.0.3, SVG Export Plug-In . SVG Version: 6.00 Build 0)  -->
<svg version="1.1" id="Capa_1" xmlns="http://www.w3.org/2000/svg" xmlns:xlink="http://www.w3.org/1999/xlink" x="0px" y="0px"
	 viewBox="0 0 2429.1 840" style="enable-background:new 0 0 2429.1 840;" xml:space="preserve">
<style type="text/css">
	.st0{fill:url(#SVGID_1_);}
	.st1{fill:url(#SVGID_2_);}
	.st2{fill:url(#SVGID_3_);}
	.st3{fill:url(#SVGID_4_);}
	.st4{fill:url(#SVGID_5_);}
	.st5{fill:url(#SVGID_6_);}
	.st6{fill:url(#SVGID_7_);}
	.st7{fill:url(#SVGID_8_);}
	.st8{fill:none;stroke:#D8D9DD;stroke-width:0.75;stroke-miterlimit:10;}
	.st9{fill:none;stroke:#850F5B;stroke-width:0.5;stroke-miterlimit:10;}
	.st10{fill:none;stroke:#850F5B;stroke-width:0.75;stroke-miterlimit:10;}
	.st11{fill:url(#SVGID_9_);}
	.st12{fill:url(#SVGID_10_);}
	.st13{fill:url(#SVGID_11_);}
	.st14{fill:none;stroke:#AEADB3;stroke-width:0.75;stroke-miterlimit:10;}
	.st15{fill:url(#SVGID_12_);}
	.st16{fill:url(#SVGID_13_);}
	.st17{fill:none;stroke:#C2C3C9;stroke-width:0.75;stroke-miterlimit:10;}
	.st18{fill:url(#SVGID_14_);}
	.st19{fill:#DD9C30;}
	.st20{fill:url(#SVGID_15_);}
	.st21{fill:url(#SVGID_16_);}
	.st22{fill:url(#SVGID_17_);}
	.st23{fill:url(#SVGID_18_);}
	.st24{fill:url(#SVGID_19_);}
	.st25{fill:url(#SVGID_20_);}
	.st26{fill:url(#SVGID_21_);}
	.st27{fill:url(#SVGID_22_);}
	.st28{fill:url(#SVGID_23_);}
	.st29{fill:url(#SVGID_24_);}
	.st30{fill:url(#SVGID_25_);}
	.st31{fill:url(#SVGID_26_);}
	.st32{fill:url(#SVGID_27_);}
	.st33{fill:url(#SVGID_28_);}
	.st34{fill:url(#SVGID_29_);}
	.st35{fill:url(#SVGID_30_);}
	.st36{fill:url(#SVGID_31_);}
	.st37{fill:url(#SVGID_32_);}
	.st38{fill:url(#SVGID_33_);}
	.st39{fill:url(#SVGID_34_);}
	.st40{fill:url(#SVGID_35_);}
	.st41{fill:none;stroke:#EDEEF0;stroke-miterlimit:10;}
</style>
<g>
	<linearGradient id="SVGID_1_" gradientUnits="userSpaceOnUse" x1="858.8407" y1="381.1365" x2="866.555" y2="500.708">
		<stop  offset="0" style="stop-color:#271C7C"/>
		<stop  offset="1" style="stop-color:#3B4994"/>
	</linearGradient>
	<path class="st0" d="M949.7,367.69c-7.32-3-13.84-2.17-16.21-2.01c-1.54,0.1-2.82,0.52-3.51,0.8l-89.1,38.97
		c0.88-8.21,1.64-14.7,2.14-18.86c1.12-9.3,1.74-13.59,1.29-20.04c-0.38-5.3-0.57-7.94-1.93-11.14
		c-4.27-10.01-14.62-13.8-16.93-14.57c-1.74-0.58-10.18-3.23-19.82,0.32c-2.72,1-9.83,3.62-13.96,10.93
		c-1.81,3.2-2.46,6.25-2.71,8.29l-26.71,171.5c0,0,0.21,24,20.5,28.07c20.29,4.07,29.93-8.29,31.57-10.71
		c1.64-2.43,3-6.29,3.79-9.29s3.79-23.57,3.79-23.57l2.36-18.86c0,0,0.4-3.41,2.94-0.72c2.54,2.69,3.68,3.94,3.68,3.94l66.91,71.17
		c0,0,6.38,6.11,17.04,6.21s18.96-8.46,18.96-8.46s3.32-3.38,5.57-6.86c2.25-3.48,2.46-4.29,3.64-8.25c0.96-5.14,0-11.09,0-11.09
		s-0.21-4.66-4.82-10.07c-4.61-5.41-72.32-76.77-72.32-76.77s-1.45-1.21-0.09-2.05c5.09-1.95,5.86-2.25,5.86-2.25l31.45-13.02
		l34.36-15.29c14.17-6.88,37.29-20.54,25-43.89C962.42,380.12,958.42,371.26,949.7,367.69z"/>
	<linearGradient id="SVGID_2_" gradientUnits="userSpaceOnUse" x1="1027.5439" y1="370.2525" x2="1035.2582" y2="489.8239">
		<stop  offset="0" style="stop-color:#271C7C"/>
		<stop  offset="1" style="stop-color:#3B4994"/>
	</linearGradient>
	<path class="st1" d="M1052.17,339.84c-18.43-2.15-26.53,14.11-27.84,17.04c-0.12,0.28-0.21,0.55-0.27,0.85
		c-1.84,8.93-33.95,164.5-34.67,169.5c-0.75,5.14-1.39,16.07-1.39,16.07c2.14,11.89,9.21,15.75,9.21,15.75s6.43,6.11,24.64,5.57
		c18.21-0.54,22.18-18.21,22.18-18.21s33.94-167.46,33.94-180.11C1077.96,354.2,1068.22,341.7,1052.17,339.84z"/>
	<linearGradient id="SVGID_3_" gradientUnits="userSpaceOnUse" x1="1198.0052" y1="359.255" x2="1205.7195" y2="478.8264">
		<stop  offset="0" style="stop-color:#271C7C"/>
		<stop  offset="1" style="stop-color:#3B4994"/>
	</linearGradient>
	<path class="st2" d="M1267.13,349.91c-45.26-35.33-113.46-16.26-144.71-5.35c-26.43,8.14-22,32.43-22,32.43l44.86,174.99
		c0,0,4.29,17.79,28.29,15.86c0,0,100.29-14.29,121.71-77.14c4.78-14.01,6.21-27.21,7.07-37.07c0.86-9.86-2.87-44.51-8.14-64.29
		C1293.87,388.08,1286.76,365.23,1267.13,349.91z M1247.27,446c-1,13-1.22,13.19-3.43,20.53c-2.29,7.59-11.89,18.05-11.89,18.05
		s-16.25,14.96-39.96,20.89c-0.99,0.25-1.29,0-1.29,0l-28.13-113.15c-0.21-0.86,0.29-1.72,1.14-1.96c1.98-0.56,6.08-1.56,13.28-2.75
		c11.71-1.93,33.21-1.71,37.71-0.86c4.5,0.86,23.14,2.64,29.57,29.93C1244.27,416.69,1248.27,433,1247.27,446z"/>
	<linearGradient id="SVGID_4_" gradientUnits="userSpaceOnUse" x1="1390.9911" y1="462.2603" x2="1589.8483" y2="381.6888">
		<stop  offset="0" style="stop-color:#1A2075"/>
		<stop  offset="1" style="stop-color:#78107D"/>
	</linearGradient>
	<path class="st3" d="M1434.13,337.69c-1.29,0-31.92-1.84-45.71,3.71c0,0-22,6.43-32.57,19.43c0,0-14.39,14.04-17.18,33.75
		c-1.6,11.83-1.68,35.54,20.89,56.79c8.14,8.31,35.72,25.66,41.45,29.59c26.26,18.01,19.41,51.94-11.77,22.05
		c-10.88-10.43-21.51-24.53-29.68-25.18c-9.33-0.75-38.14,8.14-30.14,38.71c3.81,12.96,46.25,58.17,85,54
		c6.71-0.14,29.71-2.86,41.71-18.14c2.71-3.14,14.43-16.29,16-39.14c0.29-13.57,0-15,0-15s-1-29.71-22.86-50
		c-3.43-3.43-17.14-15.29-35.43-24.71c-18.29-9.43-25-21.86-14.71-26.43c10.29-4.57,29.86-3.71,29.86-3.71s0.29-0.71,2.57,1.43
		c0,0,8.57,13.43,32.29,5.29c23.71-8.14,14.14-36.43,14.14-36.43S1470.99,341.55,1434.13,337.69z"/>
	<linearGradient id="SVGID_5_" gradientUnits="userSpaceOnUse" x1="1591.5292" y1="465.8629" x2="1786.9485" y2="465.8629">
		<stop  offset="0" style="stop-color:#1A2075"/>
		<stop  offset="1" style="stop-color:#78107D"/>
	</linearGradient>
	<path class="st4" d="M1768.1,523.77c-1.16-0.5-2.39-0.82-3.65-0.96c-1.93-0.21-4.34-0.37-15.18,0.6
		c-14.43,1.29-67.14,6.43-67.14,6.43s-3.43,1.29-1-4.86s59.57-135.43,59.57-135.43s14.14-36.71-20-43.86c0,0-4.71-1.14-16.43,0.57
		c-11.71,1.71-92.86,19.43-92.86,19.43s-23.43,3-19.43,30.86c4,27.86,33.71,22.29,33.71,22.29l41.86-9.43c0,0,3.57-1.86,1.86,2.14
		c-1.57,3.66-48.05,118.69-55.88,138.09c-0.95,2.35-1.49,4.84-1.57,7.38c-0.25,7.71,1.58,22.99,18.75,29.38
		c24.85-0.29,133.85-9.57,133.85-9.57s16.23-1.06,21.68-18.89c0.46-1.5,0.67-3.05,0.7-4.61
		C1787.06,546.95,1785.89,531.45,1768.1,523.77z"/>
	<linearGradient id="SVGID_6_" gradientUnits="userSpaceOnUse" x1="1768.224" y1="416.0001" x2="1972.9093" y2="416.0001">
		<stop  offset="0" style="stop-color:#1A2075"/>
		<stop  offset="1" style="stop-color:#78107D"/>
	</linearGradient>
	<path class="st5" d="M1906.7,315.12c0,0-10.86-20.71-54.43-11.29c-10.71,2.29-38.14,9.29-56.43,28.86c-6,7-24,29.57-26.29,61.57
		c-6.71,51.21,10.64,118.93,80.29,135.14c54,10.57,117-49.43,122.57-110.86C1975.85,387.94,1962.13,323.98,1906.7,315.12z
		 M1916.18,406.4c-2.39,17.86-8,34-9.29,35.71c-70.79,109.21-133.14-86.43-32.43-83.86c3.57,8.86,14,10.86,14,10.86
		C1910.66,368.81,1918.87,386.26,1916.18,406.4z"/>
	<linearGradient id="SVGID_7_" gradientUnits="userSpaceOnUse" x1="1965.3696" y1="444.0809" x2="2172.1316" y2="444.0809">
		<stop  offset="0" style="stop-color:#1A2075"/>
		<stop  offset="1" style="stop-color:#78107D"/>
	</linearGradient>
	<path class="st6" d="M2178.2,319.98c-23.5-1.43-30.43,15.14-30.43,15.14s-1.79,3.57-1.86,9.29c-0.07,5.71,0.5,86.86,0.5,86.86
		c2.07,2.26-98.92-86.5-117.59-90.46c-15.2-3.23-29.36,5.84-31.84,17.4c0,0-1.71,10.64,0,25.78c1.71,15.14,18,97.71,21.14,106
		c0.57,2,12.86,50,16.57,60.29c3.71,10.29,12,18.29,20.57,18c8.57-0.29,36.5,1.29,34.14-31.93c-1.71-4.5-15.43-52.93-16.29-57.21
		c-0.86-4.29-10.71-43.04-10.71-45.24s1.31-2.01,2.09-1.31s97.34,95.12,97.34,95.12s14.21,9.43,29.86-2.29
		c0.07,0.07,10.14-6.21,11.29-19c-0.07-0.29,0-159.57,0-159.57S2201.7,321.41,2178.2,319.98z"/>
	<linearGradient id="SVGID_8_" gradientUnits="userSpaceOnUse" x1="2227.2756" y1="408.1249" x2="2392.4355" y2="408.1249">
		<stop  offset="0" style="stop-color:#1A2075"/>
		<stop  offset="1" style="stop-color:#78107D"/>
	</linearGradient>
	<path class="st7" d="M2383.63,309.55c-1.93-1.5-10.14-6.93-24.07-9.64c-13.93-2.71-23.14-4.5-23.14-4.5l-26.56-4
		c0,0-19.31-2.71-25.01,0c0,0-17.14,3.83-16.71,28.48c-0.21,1.09-40.29,160.73-40.29,160.73s-5.79,27.86,19.5,34.93
		c2.14,0.43,80.79,10.5,80.79,10.5s16.29-1.93,22.29-24c0.21-0.43,5.36-26.14-21-31.07c-2.36-0.43-38.36-6-38.36-6
		s-1.53-0.21-0.13-4.26l9.24-36.56c0,0,0.35-1.15,2.57-0.62c2.22,0.54,31.39,5.65,31.39,5.65s15.86,3.43,25.71-5.68
		c9.86-9.11,17.14-33.96-5.43-46.11c0,0.04-5.45-2.23-10.64-3.39c-5.25-1.18-29.25-5.57-29.25-5.57s-0.36-0.11-0.04-1.79
		c0.32-1.68,4.07-17.32,4.07-17.32s0.19-0.77,0.86-0.66c0.67,0.11,40.49,9.45,40.49,9.45s12.07,2.14,20.36-3.07
		c0.21,0,11.21-6.71,12-20.57C2392.27,334.26,2394.35,319.05,2383.63,309.55z"/>
</g>
<path class="st8" d="M1406.1,716.14"/>
<path class="st9" d="M-285.28,269.87"/>
<path class="st10" d="M555.89,329.96"/>
<path class="st10" d="M150.18,146.1"/>
<path class="st10" d="M378.02,810.3"/>
<path class="st10" d="M378.01,699.13"/>
<path class="st10" d="M375.07,669.73"/>
<path class="st10" d="M380.25,669.73"/>
<path class="st10" d="M390.43,371.8"/>
<path class="st10" d="M138.5,438.3"/>
<path class="st10" d="M54.5,386.45"/>
<path class="st10" d="M43.57,225.73"/>
<linearGradient id="SVGID_9_" gradientUnits="userSpaceOnUse" x1="502.6427" y1="659.2661" x2="588.1427" y2="659.2661">
	<stop  offset="0" style="stop-color:#271C7C"/>
	<stop  offset="1" style="stop-color:#3B4994"/>
</linearGradient>
<polygon class="st11" points="502.64,740.51 588.14,690.95 588.14,578.02 502.64,627.09 "/>
<linearGradient id="SVGID_10_" gradientUnits="userSpaceOnUse" x1="614.2856" y1="589.8034" x2="714.3571" y2="589.8034">
	<stop  offset="0" style="stop-color:#271C7C"/>
	<stop  offset="1" style="stop-color:#3B4994"/>
</linearGradient>
<path class="st12" d="M614.29,675.3L706,623.02c0,0,7.82-3.54,8.36-13.82c0-10.29,0-104.89,0-104.89l-100.07,58.29V675.3z"/>
<linearGradient id="SVGID_11_" gradientUnits="userSpaceOnUse" x1="614.4999" y1="454.3748" x2="714.3571" y2="454.3748">
	<stop  offset="0" style="stop-color:#271C7C"/>
	<stop  offset="1" style="stop-color:#3B4994"/>
</linearGradient>
<polygon class="st13" points="714.36,375.3 614.5,434.45 614.5,533.45 714.36,476.02 "/>
<path class="st8" d="M615,289.52l-0.5,115.14l99.86-57.21l0.21-108.43c0,0-0.36-10.57-8.93-15.5c-9.08-5.22-89.21-51.14-89.21-51.14
	l-102.29,58.71L615,289.52z"/>
<path class="st14" d="M712.64,231.98l-97.34,57.37L712.64,231.98z"/>
<linearGradient id="SVGID_12_" gradientUnits="userSpaceOnUse" x1="502.6427" y1="524.4462" x2="588.1427" y2="524.4462">
	<stop  offset="0" style="stop-color:#271C7C"/>
	<stop  offset="1" style="stop-color:#3B4994"/>
</linearGradient>
<polygon class="st15" points="588.14,450.3 502.64,500.66 502.64,598.59 588.14,548.66 "/>
<linearGradient id="SVGID_13_" gradientUnits="userSpaceOnUse" x1="502.2142" y1="386.7677" x2="588.9999" y2="386.7677">
	<stop  offset="0" style="stop-color:#271C7C"/>
	<stop  offset="0.6309" style="stop-color:#35408D"/>
	<stop  offset="1" style="stop-color:#3B4994"/>
</linearGradient>
<polygon class="st16" points="589,303.95 502.21,354.09 502.64,469.59 588.14,420.3 "/>
<path class="st17" d="M475.57,516.52 M475.57,614.52 M277.29,519.03v94.34l97.79,56.36c2.85,1.76,5.12-0.06,5.18,0 M373.86,574.37
	 M380.07,573.57"/>
<linearGradient id="SVGID_14_" gradientUnits="userSpaceOnUse" x1="378.1069" y1="456.1575" x2="475.3881" y2="456.1575">
	<stop  offset="0" style="stop-color:#271C7C"/>
	<stop  offset="1" style="stop-color:#3B4994"/>
</linearGradient>
<path class="st18" d="M378.13,542.12l97.1-55.87c0.1-0.06,0.16-0.16,0.16-0.27V371.3c0,0,0-0.47-0.29-1.11l-96.99,53.74
	L378.13,542.12z"/>
<path class="st19" d="M378.13,423.94"/>
<path class="st19" d="M378.15,542.12"/>
<linearGradient id="SVGID_15_" gradientUnits="userSpaceOnUse" x1="165.5714" y1="659.3065" x2="252.7393" y2="659.3065">
	<stop  offset="0" style="stop-color:#271C7C"/>
	<stop  offset="0.6309" style="stop-color:#35408D"/>
	<stop  offset="1" style="stop-color:#3B4994"/>
</linearGradient>
<polygon class="st20" points="165.57,689.8 252.46,740.95 252.74,628.11 165.57,577.66 "/>
<linearGradient id="SVGID_16_" gradientUnits="userSpaceOnUse" x1="165.9999" y1="526.3034" x2="252.7393" y2="526.3034">
	<stop  offset="0" style="stop-color:#271C7C"/>
	<stop  offset="0.6309" style="stop-color:#35408D"/>
	<stop  offset="1" style="stop-color:#3B4994"/>
</linearGradient>
<polygon class="st21" points="252.57,504.23 166,454.23 166,548.52 252.74,598.37 "/>
<linearGradient id="SVGID_17_" gradientUnits="userSpaceOnUse" x1="165.8571" y1="385.1604" x2="252.7393" y2="385.1604">
	<stop  offset="0" style="stop-color:#271C7C"/>
	<stop  offset="0.6309" style="stop-color:#35408D"/>
	<stop  offset="1" style="stop-color:#3B4994"/>
</linearGradient>
<path class="st22" d="M167,303.68c-0.51-0.37-1.72-1.89-0.39-3.16c-0.47,0.28-0.76,0.79-0.76,1.34v118.38l86.88,49.57l-0.03-115.71
	l-85.32-50.13C167.35,303.94,167.1,303.75,167,303.68z"/>
<linearGradient id="SVGID_18_" gradientUnits="userSpaceOnUse" x1="41.2856" y1="457.4016" x2="138.0892" y2="457.4016">
	<stop  offset="0" style="stop-color:#271C7C"/>
	<stop  offset="0.6309" style="stop-color:#35408D"/>
	<stop  offset="1" style="stop-color:#3B4994"/>
</linearGradient>
<polygon class="st23" points="51.13,387.86 41.29,382.16 41.29,477.52 138.09,532.64 137.93,438.09 "/>
<linearGradient id="SVGID_19_" gradientUnits="userSpaceOnUse" x1="40.2218" y1="589.4105" x2="137.9999" y2="589.4105">
	<stop  offset="0" style="stop-color:#271C7C"/>
	<stop  offset="0.6309" style="stop-color:#35408D"/>
	<stop  offset="1" style="stop-color:#3B4994"/>
</linearGradient>
<path class="st24" d="M40.22,611.64c0,3.72,2.12,7.05,5.21,9.03L138,674.09V561.23l-97.64-56.5L40.22,611.64z"/>
<linearGradient id="SVGID_20_" gradientUnits="userSpaceOnUse" x1="277.2856" y1="725.7304" x2="475.5714" y2="725.7304">
	<stop  offset="0" style="stop-color:#271C7C"/>
	<stop  offset="0.6309" style="stop-color:#35408D"/>
	<stop  offset="1" style="stop-color:#3B4994"/>
</linearGradient>
<path class="st25" d="M475.57,642.52l-96.05,55.71c-1.02,0.59-2.17,0.9-3.35,0.9h-0.11c-1.16,0-2.31-0.31-3.31-0.9l-95.47-56.46
	l0.14,112.93l94.03,53.28c2.04,1.15,4.3,1.73,6.57,1.72l0-0.19"/>
<linearGradient id="SVGID_21_" gradientUnits="userSpaceOnUse" x1="378.0222" y1="725.9761" x2="476.5228" y2="725.9761">
	<stop  offset="0" style="stop-color:#271C7C"/>
	<stop  offset="1" style="stop-color:#3B4994"/>
</linearGradient>
<path class="st26" d="M378.02,698.96l0.01,110.73c2.26-0.01,4.52-0.6,6.54-1.76l91.95-53l-0.93-112.67"/>
<line class="st19" x1="378.02" y1="809.5" x2="378.02" y2="808.73"/>
<path class="st10" d="M0,202.59"/>
<path class="st10" d="M21.57,242.8"/>
<g>
	<linearGradient id="SVGID_22_" gradientUnits="userSpaceOnUse" x1="378.0354" y1="593.4269" x2="475.6939" y2="593.4269">
		<stop  offset="0" style="stop-color:#271C7C"/>
		<stop  offset="1" style="stop-color:#3B4994"/>
	</linearGradient>
	<path class="st27" d="M475.69,516.42v98l-94.84,54.98c-0.84,0.48-2.83,1.42-2.82,0.89c-0.01-1.98,0.09-95.94,0.1-95.91
		c0,0,0.82-0.22,1.73-0.72C380.77,573.14,475.69,516.42,475.69,516.42z"/>
</g>
<linearGradient id="SVGID_23_" gradientUnits="userSpaceOnUse" x1="277.2856" y1="594.7678" x2="378.4856" y2="594.7678">
	<stop  offset="0" style="stop-color:#271C7C"/>
	<stop  offset="0.6309" style="stop-color:#35408D"/>
	<stop  offset="1" style="stop-color:#3B4994"/>
</linearGradient>
<path class="st28" d="M377.94,574.4c0,0-1.7,0.71-3.97,0.02c-1.33-0.41-96.69-55.39-96.69-55.39v94.34l98.44,56.7
	c0,0,1.18,0.67,2.76,0.34"/>
<path class="st19" d="M378.11,423.93"/>
<path class="st10" d="M285.84,357.2"/>
<path class="st10" d="M279.57,361"/>
<path class="st10" d="M283.97,358.33"/>
<path class="st19" d="M378.02,809.3"/>
<linearGradient id="SVGID_24_" gradientUnits="userSpaceOnUse" x1="277.2856" y1="454.0727" x2="378.1472" y2="454.0727">
	<stop  offset="0" style="stop-color:#271C7C"/>
	<stop  offset="0.6309" style="stop-color:#35408D"/>
	<stop  offset="1" style="stop-color:#3B4994"/>
</linearGradient>
<polygon class="st29" points="277.29,366.03 378.11,423.93 378.15,542.12 277.29,482.66 "/>
<linearGradient id="SVGID_25_" gradientUnits="userSpaceOnUse" x1="614.1963" y1="318.3381" x2="715.0453" y2="318.3381">
	<stop  offset="0" style="stop-color:#271C7C"/>
	<stop  offset="1" style="stop-color:#3B4994"/>
</linearGradient>
<path class="st30" d="M615.37,289.38l97.68-58.04c0,0,1.62,3.34,1.91,6.89c0.27,3.34-0.17,109.46-0.17,109.46L614.2,405.34
	L615.37,289.38z"/>
<path class="st14" d="M567,271.37"/>
<linearGradient id="SVGID_26_" gradientUnits="userSpaceOnUse" x1="401.0714" y1="299.6606" x2="588.9999" y2="299.6606">
	<stop  offset="0" style="stop-color:#271C7C"/>
	<stop  offset="1" style="stop-color:#3B4994"/>
</linearGradient>
<polygon class="st31" points="488.29,245.23 401.07,295.16 502.21,354.09 589,303.95 "/>
<linearGradient id="SVGID_27_" gradientUnits="userSpaceOnUse" x1="277.2856" y1="367.5296" x2="475.1396" y2="367.5296">
	<stop  offset="0" style="stop-color:#271C7C"/>
	<stop  offset="1" style="stop-color:#3B4994"/>
</linearGradient>
<path class="st32" d="M378.13,423.94c-0.17,0.09,97.01-53.74,97.01-53.74c-0.29-0.65-0.88-1.48-2.07-2.18
	c-4.77-2.45-96.28-54.92-99.69-56.87c-0.06-0.04-0.14-0.03-0.2,0c0,0-95.9,54.83-95.9,54.87v0.01L378.13,423.94l-0.02-0.01"/>
<linearGradient id="SVGID_28_" gradientUnits="userSpaceOnUse" x1="166.0112" y1="300.0891" x2="350.1427" y2="300.0891">
	<stop  offset="0" style="stop-color:#271C7C"/>
	<stop  offset="1" style="stop-color:#3B4994"/>
</linearGradient>
<path class="st33" d="M261.71,246.09l-95.07,54.41c-0.01,0.01-0.02,0.02-0.03,0.02c-1.33,1.27-0.12,2.79,0.39,3.16
	c0.09,0.07,0.43,0.3,0.46,0.32l85.25,50.09l97.43-56.57L261.71,246.09z"/>
<linearGradient id="SVGID_29_" gradientUnits="userSpaceOnUse" x1="287.7142" y1="231.3034" x2="463.4285" y2="231.3034">
	<stop  offset="0" style="stop-color:#271C7C"/>
	<stop  offset="1" style="stop-color:#3B4994"/>
</linearGradient>
<polygon class="st34" points="375.43,180.66 287.71,230.8 376.71,281.95 463.43,231.52 "/>
<linearGradient id="SVGID_30_" gradientUnits="userSpaceOnUse" x1="401.1427" y1="162.1248" x2="591.4285" y2="162.1248">
	<stop  offset="0" style="stop-color:#271C7C"/>
	<stop  offset="1" style="stop-color:#3B4994"/>
</linearGradient>
<polygon class="st35" points="489,217.16 591.43,157.16 503.57,107.09 401.14,166.23 "/>
<linearGradient id="SVGID_31_" gradientUnits="userSpaceOnUse" x1="276.0892" y1="94.1461" x2="479.1785" y2="94.1461">
	<stop  offset="0" style="stop-color:#271C7C"/>
	<stop  offset="1" style="stop-color:#3B4994"/>
</linearGradient>
<path class="st36" d="M479.18,93.25l-94.62-54.88c-4.07-2.36-9.08-2.36-13.15-0.02L276.09,93.3l100.02,58.39L479.18,93.25z"/>
<linearGradient id="SVGID_32_" gradientUnits="userSpaceOnUse" x1="163.7142" y1="162.5177" x2="350.5714" y2="162.5177">
	<stop  offset="0" style="stop-color:#271C7C"/>
	<stop  offset="1" style="stop-color:#3B4994"/>
</linearGradient>
<polygon class="st37" points="350.57,166.66 249.29,108.8 163.71,158.95 263.14,216.23 "/>
<linearGradient id="SVGID_33_" gradientUnits="userSpaceOnUse" x1="513.3554" y1="230.7669" x2="713.0532" y2="230.7669">
	<stop  offset="0" style="stop-color:#271C7C"/>
	<stop  offset="1" style="stop-color:#3B4994"/>
</linearGradient>
<path class="st38" d="M615.04,289.59l-101.68-58.47l103.07-59.17l90.16,51.75c0,0,4.57,2.87,6.47,7.64L615.04,289.59z"/>
<linearGradient id="SVGID_34_" gradientUnits="userSpaceOnUse" x1="44.4206" y1="231.2784" x2="236.4444" y2="231.2784">
	<stop  offset="0" style="stop-color:#271C7C"/>
	<stop  offset="1" style="stop-color:#3B4994"/>
</linearGradient>
<path class="st39" d="M236.44,231.39l-98.14,56.57l-90.64-53.57c0,0-7.29-3.21,0-7.29c7.29-4.07,88.93-52.5,88.93-52.5
	L236.44,231.39z"/>
<linearGradient id="SVGID_35_" gradientUnits="userSpaceOnUse" x1="40.5872" y1="316.1221" x2="138.0872" y2="316.1221">
	<stop  offset="0" style="stop-color:#271C7C"/>
	<stop  offset="0.6309" style="stop-color:#35408D"/>
	<stop  offset="1" style="stop-color:#3B4994"/>
</linearGradient>
<path class="st40" d="M45.27,228.89c0.01-0.01-2.56,2.48,1.34,4.88c3.92,2.41,91.47,54.19,91.47,54.19v116.36l-97.5-56.57
	l1.54-111.21c0.09-2.16,0.23-5.03,2.53-7.3c0.29-0.29,1.45-1.15,1.71-1.3"/>
<path class="st41" d="M45.57,231.48"/>
<path class="st41" d="M44.95,228.97"/>
<path class="st41" d="M45.04,228.82"/>
</svg>
