<?xml version="1.0" encoding="UTF-8" standalone="no"?>
<svg
   xmlns:dc="http://purl.org/dc/elements/1.1/"
   xmlns:cc="http://creativecommons.org/ns#"
   xmlns:rdf="http://www.w3.org/1999/02/22-rdf-syntax-ns#"
   xmlns:svg="http://www.w3.org/2000/svg"
   xmlns="http://www.w3.org/2000/svg"
   viewBox="0 0 2421.72 1430.8533"
   height="1430.8533"
   width="2421.72"
   xml:space="preserve"
   id="svg2"
   version="1.1"><metadata
     id="metadata8"><rdf:RDF><cc:Work
         rdf:about=""><dc:format>image/svg+xml</dc:format><dc:type
           rdf:resource="http://purl.org/dc/dcmitype/StillImage" /></cc:Work></rdf:RDF></metadata><defs
     id="defs6"><clipPath
       id="clipPath18"
       clipPathUnits="userSpaceOnUse"><path
         id="path16"
         d="M 0,1073.143 H 1816.286 V 0 H 0 Z" /></clipPath></defs><g
     transform="matrix(1.3333333,0,0,-1.3333333,0,1430.8533)"
     id="g10"><g
       id="g12"><g
         clip-path="url(#clipPath18)"
         id="g14"><g
           transform="translate(242.1591,245.1198)"
           id="g20"><path
             id="path22"
             style="fill:#e97973;fill-opacity:1;fill-rule:nonzero;stroke:none"
             d="M 0,0 C -7.325,3.002 -13.842,2.166 -16.213,2.006 -17.753,1.902 -19.037,1.49 -19.72,1.209 l -89.099,-38.966 c 0.876,8.208 1.641,14.702 2.143,18.857 1.124,9.297 1.745,13.588 1.286,20.036 -0.377,5.296 -0.566,7.944 -1.929,11.142 -4.266,10.014 -14.619,13.799 -16.928,14.572 -1.743,0.584 -10.182,3.227 -19.822,-0.322 -2.717,-1 -9.826,-3.617 -13.964,-10.928 -1.811,-3.201 -2.458,-6.249 -2.714,-8.286 l -26.714,-171.5 c 0,0 0.214,-24 20.5,-28.071 20.285,-4.071 29.928,8.285 31.571,10.714 1.643,2.429 3,6.286 3.786,9.286 0.785,3 3.785,23.571 3.785,23.571 l 2.358,18.858 c 0,0 0.397,3.41 2.941,0.719 2.545,-2.693 3.684,-3.938 3.684,-3.938 l 66.907,-71.168 c 0,0 6.375,-6.106 17.036,-6.214 10.661,-0.107 18.964,8.464 18.964,8.464 0,0 3.322,3.375 5.572,6.858 2.25,3.482 2.464,4.286 3.643,8.25 0.964,5.142 0,11.089 0,11.089 0,0 -0.215,4.661 -4.822,10.072 -4.607,5.41 -72.321,76.767 -72.321,76.767 0,0 -1.447,1.214 -0.09,2.054 5.09,1.946 5.858,2.25 5.858,2.25 l 31.446,13.018 34.357,15.286 c 14.17,6.875 37.286,20.535 25,43.892 0,0 -4,8.858 -12.714,12.429" /></g><g
           transform="translate(344.623,272.9773)"
           id="g24"><path
             id="path26"
             style="fill:#f6b416;fill-opacity:1;fill-rule:nonzero;stroke:none"
             d="m 0,0 c -18.431,2.145 -26.531,-14.106 -27.838,-17.043 -0.122,-0.276 -0.213,-0.554 -0.274,-0.851 -1.844,-8.933 -33.945,-164.504 -34.674,-169.5 -0.75,-5.142 -1.392,-16.071 -1.392,-16.071 2.142,-11.892 9.214,-15.75 9.214,-15.75 0,0 6.428,-6.107 24.643,-5.571 18.214,0.536 22.178,18.214 22.178,18.214 0,0 33.939,167.465 33.937,180.114 C 25.792,-14.361 16.054,-1.869 0,0" /></g><g
           transform="translate(539.7304,166.8132)"
           id="g28"><path
             id="path30"
             style="fill:#007bab;fill-opacity:1;fill-rule:nonzero;stroke:none"
             d="m 0,0 c -1,-13 -1.217,-13.188 -3.429,-20.533 -2.285,-7.589 -11.892,-18.053 -11.892,-18.053 0,0 -16.25,-14.965 -39.965,-20.893 -0.991,-0.249 -1.285,0 -1.285,0 L -84.7,53.669 c -0.213,0.854 0.288,1.722 1.137,1.96 1.98,0.557 6.081,1.564 13.277,2.749 11.715,1.929 33.215,1.714 37.715,0.857 C -28.071,58.378 -9.429,56.592 -3,29.307 -3,29.307 1,13 0,0 m 19.857,96.092 c -45.259,35.326 -113.463,16.257 -144.714,5.347 -26.429,-8.143 -22,-32.428 -22,-32.428 L -102,-105.979 c 0,0 4.286,-17.786 28.286,-15.857 0,0 100.285,14.285 121.714,77.143 4.776,14.01 6.214,27.214 7.071,37.071 0.858,9.857 -2.874,44.511 -8.142,64.286 -0.335,1.257 -7.441,24.106 -27.072,39.428" /></g><g
           transform="translate(726.5873,275.1198)"
           id="g32"><path
             id="path34"
             style="fill:#e12839;fill-opacity:1;fill-rule:nonzero;stroke:none"
             d="m 0,0 c -1.286,0 -31.92,1.839 -45.714,-3.715 0,0 -22,-6.428 -32.572,-19.428 0,0 -14.392,-14.036 -17.178,-33.75 -1.599,-11.833 -1.679,-35.536 20.893,-56.786 8.138,-8.305 35.717,-25.66 41.451,-29.593 26.263,-18.014 19.406,-51.943 -11.773,-22.049 -10.883,10.434 -21.509,24.525 -29.678,25.178 -9.33,0.746 -38.143,-8.143 -30.143,-38.714 3.811,-12.957 46.248,-58.174 85,-54 C -13,-232.715 10,-230 22,-214.715 c 2.714,3.144 14.429,16.286 16,39.144 0.286,13.571 0,15 0,15 0,0 -1,29.714 -22.857,50 -3.429,3.428 -17.143,15.285 -35.429,24.714 -18.285,9.428 -25,21.857 -14.714,26.428 10.286,4.572 29.857,3.714 29.857,3.714 0,0 0.286,0.715 2.572,-1.428 0,0 8.571,-13.428 32.285,-5.286 23.715,8.143 14.143,36.429 14.143,36.429 0,0 -7,22.143 -43.857,26" /></g><g
           transform="translate(1042.5604,89.0417)"
           id="g36"><path
             id="path38"
             style="fill:#e97973;fill-opacity:1;fill-rule:nonzero;stroke:none"
             d="M 0,0 C -1.16,0.5 -2.392,0.824 -3.648,0.961 -5.573,1.172 -7.99,1.33 -18.83,0.363 c -14.429,-1.285 -67.143,-6.427 -67.143,-6.427 0,0 -3.429,-1.287 -1,4.856 2.429,6.144 59.571,135.429 59.571,135.429 0,0 14.143,36.715 -20,43.857 0,0 -4.714,1.143 -16.428,-0.571 -11.714,-1.715 -92.857,-19.429 -92.857,-19.429 0,0 -23.429,-3 -19.429,-30.857 4,-27.858 33.714,-22.285 33.714,-22.285 l 41.858,9.427 c 0,0 3.571,1.858 1.857,-2.142 -1.57,-3.662 -48.047,-118.695 -55.884,-138.093 -0.951,-2.355 -1.492,-4.844 -1.573,-7.381 -0.249,-7.712 1.58,-22.995 18.746,-29.384 24.854,0.286 133.854,9.573 133.854,9.573 0,0 16.229,1.054 21.677,18.889 0.457,1.496 0.675,3.051 0.704,4.614 C 18.955,-23.177 17.785,-7.675 0,0" /></g><g
           transform="translate(1190.6322,206.4148)"
           id="g40"><path
             id="path42"
             style="fill:#f6b416;fill-opacity:1;fill-rule:nonzero;stroke:none"
             d="m 0,0 c -2.393,-17.861 -8,-34 -9.286,-35.715 -70.786,-109.214 -133.143,86.429 -32.428,83.858 3.571,-8.858 14,-10.858 14,-10.858 C -5.515,37.584 2.698,20.139 0,0 m -9.474,91.276 c 0,0 -10.857,20.714 -54.428,11.287 -10.714,-2.287 -38.143,-9.287 -56.429,-28.858 -6,-7 -24,-29.571 -26.285,-61.571 -6.715,-51.215 10.642,-118.929 80.285,-135.144 54,-10.571 117,49.429 122.572,110.858 3.428,30.607 -10.286,94.571 -65.715,103.428" /></g><g
           transform="translate(1452.6586,292.8337)"
           id="g44"><path
             id="path46"
             style="fill:#007bab;fill-opacity:1;fill-rule:nonzero;stroke:none"
             d="m 0,0 c -23.5,1.429 -30.428,-15.143 -30.428,-15.143 0,0 -1.786,-3.571 -1.858,-9.286 -0.071,-5.714 0.5,-86.856 0.5,-86.856 2.074,-2.263 -98.923,86.5 -117.589,90.464 -15.204,3.228 -29.357,-5.839 -31.839,-17.401 0,0 -1.714,-10.634 0,-25.778 1.714,-15.143 18,-97.714 21.143,-106 0.571,-2 12.857,-50 16.571,-60.285 3.714,-10.286 12,-18.286 20.572,-18 8.571,0.285 36.5,-1.286 34.142,31.929 -1.714,4.5 -15.428,52.927 -16.285,57.213 -0.857,4.287 -10.715,43.045 -10.715,45.242 0,2.196 1.313,2.008 2.09,1.312 0.777,-0.696 97.339,-95.125 97.339,-95.125 0,0 14.214,-9.429 29.857,2.285 0.072,-0.071 10.143,6.215 11.286,19 -0.072,0.286 0,159.573 0,159.573 0,0 -1.286,25.427 -24.786,26.856" /></g><g
           transform="translate(1658.0873,303.2624)"
           id="g48"><path
             id="path50"
             style="fill:#e12839;fill-opacity:1;fill-rule:nonzero;stroke:none"
             d="m 0,0 c -1.929,1.5 -10.143,6.929 -24.071,9.643 -13.929,2.714 -23.143,4.5 -23.143,4.5 l -26.562,4 c 0,0 -19.305,2.714 -25.01,0 0,0 -17.143,-3.826 -16.714,-28.484 -0.214,-1.088 -40.286,-160.73 -40.286,-160.73 0,0 -5.785,-27.858 19.5,-34.929 2.143,-0.429 80.786,-10.5 80.786,-10.5 0,0 16.286,1.929 22.286,24 0.214,0.429 5.357,26.143 -21,31.071 -2.357,0.429 -38.357,6 -38.357,6 0,0 -1.527,0.215 -0.134,4.259 l 9.241,36.563 c 0,0 0.348,1.152 2.571,0.616 2.224,-0.535 31.393,-5.652 31.393,-5.652 0,0 15.857,-3.428 25.714,5.679 9.857,9.107 17.143,33.964 -5.428,46.107 0,-0.036 -5.453,2.228 -10.643,3.393 -5.25,1.179 -29.25,5.571 -29.25,5.571 0,0 -0.357,0.108 -0.036,1.786 0.322,1.678 4.073,17.317 4.073,17.317 0,0 0.195,0.772 0.865,0.665 0.669,-0.107 40.491,-9.446 40.491,-9.446 0,0 12.071,-2.143 20.357,3.071 0.214,0 11.214,6.715 12,20.571 C 8.643,-24.714 10.714,-9.5 0,0" /></g><g
           transform="translate(962.2944,337.7644)"
           id="g52"><path
             id="path54"
             style="fill:#00a1c3;fill-opacity:1;fill-rule:nonzero;stroke:none"
             d="M 0,0 85.5,49.568 V 162.497 L 0,113.425 Z" /></g><g
           transform="translate(1073.9374,402.9753)"
           id="g56"><path
             id="path58"
             style="fill:#00a1c3;fill-opacity:1;fill-rule:nonzero;stroke:none"
             d="m 0,0 91.714,52.286 c 0,0 7.822,3.535 8.357,13.821 V 171 L 0,112.714 Z" /></g><g
           transform="translate(1174.0087,702.9753)"
           id="g60"><path
             id="path62"
             style="fill:#00a1c3;fill-opacity:1;fill-rule:nonzero;stroke:none"
             d="m 0,0 -99.857,-59.143 v -99 L 0,-100.714 Z" /></g><g
           transform="translate(1074.6517,788.7609)"
           id="g64"><path
             id="path66"
             style="fill:none;stroke:#d8dade;stroke-width:0.75;stroke-linecap:butt;stroke-linejoin:miter;stroke-miterlimit:10;stroke-dasharray:none;stroke-opacity:1"
             d="M 0,0 -0.5,-115.143 99.357,-57.929 99.571,50.5 c 0,0 -0.357,10.571 -8.928,15.5 -9.081,5.221 -89.214,51.143 -89.214,51.143 L -100.857,58.428 Z" /></g><g
           transform="translate(1172.2943,846.2966)"
           id="g68"><path
             id="path70"
             style="fill:none;stroke:#b0afb5;stroke-width:0.75;stroke-linecap:butt;stroke-linejoin:miter;stroke-miterlimit:10;stroke-dasharray:none;stroke-opacity:1"
             d="M 0,0 -97.339,-57.366 Z" /></g><g
           transform="translate(1047.7943,627.9753)"
           id="g72"><path
             id="path74"
             style="fill:#00a1c3;fill-opacity:1;fill-rule:nonzero;stroke:none"
             d="m 0,0 -85.5,-50.357 v -97.929 L 0,-98.357 Z" /></g><g
           transform="translate(1048.6517,774.3322)"
           id="g76"><path
             id="path78"
             style="fill:#00a1c3;fill-opacity:1;fill-rule:nonzero;stroke:none"
             d="m 0,0 -86.786,-50.143 0.429,-115.5 85.5,49.286 z" /></g><g
           transform="translate(935.2231,561.7609)"
           id="g80" /><g
           transform="translate(837.7797,536.1618)"
           id="g82"><path
             id="path84"
             style="fill:#00a1c3;fill-opacity:1;fill-rule:nonzero;stroke:none"
             d="m 0,0 97.103,55.865 c 0.097,0.056 0.157,0.16 0.157,0.273 v 114.675 c 0,0 -0.001,0.467 -0.288,1.105 L -0.021,118.177 Z" /></g><g
           transform="translate(625.2231,388.4753)"
           id="g86"><path
             id="path88"
             style="fill:#f6b416;fill-opacity:1;fill-rule:nonzero;stroke:none"
             d="M 0,0 86.887,-51.149 87.168,61.692 0,112.143 Z" /></g><g
           transform="translate(712.2231,574.0466)"
           id="g90"><path
             id="path92"
             style="fill:#f6b416;fill-opacity:1;fill-rule:nonzero;stroke:none"
             d="M 0,0 -86.571,50 V -44.286 L 0.168,-94.143 Z" /></g><g
           transform="translate(626.6562,774.6003)"
           id="g94"><path
             id="path96"
             style="fill:#f6b416;fill-opacity:1;fill-rule:nonzero;stroke:none"
             d="M 0,0 C -0.507,0.374 -1.722,1.891 -0.389,3.161 -0.857,2.878 -1.147,2.374 -1.147,1.825 V -116.554 L 85.735,-166.125 85.71,-50.411 0.386,-0.279 C 0.349,-0.258 0.094,-0.069 0,0" /></g><g
           transform="translate(510.7822,690.4206)"
           id="g98"><path
             id="path100"
             style="fill:#f6b416;fill-opacity:1;fill-rule:nonzero;stroke:none"
             d="M 0,0 -9.845,5.697 V -89.66 l 96.804,-55.125 -0.161,94.554 z" /></g><g
           transform="translate(499.8735,466.6369)"
           id="g102"><path
             id="path104"
             style="fill:#f6b416;fill-opacity:1;fill-rule:nonzero;stroke:none"
             d="M 0,0 C -0.004,-3.724 2.122,-7.05 5.206,-9.027 L 97.778,-62.448 V 50.41 l -97.643,56.5 z" /></g><g
           transform="translate(935.2231,435.761)"
           id="g106"><path
             id="path108"
             style="fill:#f6b416;fill-opacity:1;fill-rule:nonzero;stroke:none"
             d="m 0,0 -96.053,-55.711 c -1.017,-0.59 -2.172,-0.901 -3.347,-0.901 h -0.108 c -1.164,0 -2.306,0.313 -3.307,0.904 l -95.471,56.458 0.143,-112.928 94.029,-53.28 c 2.036,-1.155 4.301,-1.726 6.565,-1.717 v 0.193" /></g><g
           transform="translate(837.6743,379.32)"
           id="g110"><path
             id="path112"
             style="fill:#00a1c3;fill-opacity:1;fill-rule:nonzero;stroke:none"
             d="m 0,0 0.013,-110.734 c 2.259,0.008 4.516,0.596 6.541,1.763 L 98.5,-55.975 97.572,56.699" /></g><g
           transform="translate(837.6738,268.779)"
           id="g114"><path
             id="path116"
             style="fill:#f29e1f;fill-opacity:1;fill-rule:nonzero;stroke:none"
             d="M 0,0 V 0.768" /></g><g
           transform="translate(935.3456,561.862)"
           id="g118"><path
             id="path120"
             style="fill:#00a1c3;fill-opacity:1;fill-rule:nonzero;stroke:none"
             d="m 0,0 v -98 l -94.838,-54.976 c -0.845,-0.482 -2.834,-1.418 -2.82,-0.886 -0.006,1.975 0.094,95.943 0.095,95.912 0,0 0.825,0.222 1.734,0.724 C -94.92,-56.723 0,0 0,0" /></g><g
           transform="translate(837.7993,503.9177)"
           id="g122"><path
             id="path124"
             style="fill:#f6b416;fill-opacity:1;fill-rule:nonzero;stroke:none"
             d="M 0,0 C 0,0 -1.704,-0.706 -3.965,-0.017 -5.3,0.39 -100.656,55.369 -100.656,55.369 v -94.344 l 98.437,-56.701 c 0,0 1.182,-0.667 2.763,-0.336" /></g><g
           transform="translate(736.9374,712.2497)"
           id="g126"><path
             id="path128"
             style="fill:#f6b416;fill-opacity:1;fill-rule:nonzero;stroke:none"
             d="M 0,0 100.823,-57.901 100.862,-176.088 0,-116.632 Z" /></g><g
           transform="translate(1075.0223,788.8947)"
           id="g130"><path
             id="path132"
             style="fill:#00a1c3;fill-opacity:1;fill-rule:nonzero;stroke:none"
             d="m 0,0 97.683,58.044 c 0,0 1.623,-3.336 1.906,-6.892 0.266,-3.345 -0.174,-109.465 -0.174,-109.465 l -100.589,-57.64 z" /></g><g
           transform="translate(947.9374,833.0466)"
           id="g134"><path
             id="path136"
             style="fill:#e12839;fill-opacity:1;fill-rule:nonzero;stroke:none"
             d="m 0,0 -87.214,-49.929 101.143,-58.928 86.785,50.143 z" /></g><g
           transform="translate(837.7783,654.3386)"
           id="g138"><path
             id="path140"
             style="fill:#e12839;fill-opacity:1;fill-rule:nonzero;stroke:none"
             d="m 0,0 c -0.167,-0.093 97.013,53.742 97.013,53.742 -0.292,0.65 -0.88,1.478 -2.068,2.18 -4.767,2.453 -96.276,54.916 -99.688,56.872 -0.064,0.037 -0.137,0.035 -0.201,-0.002 0,0 -95.897,-54.827 -95.897,-54.873 V 57.911 L 0,0 -0.018,0.01" /></g><g
           transform="translate(721.3661,832.1891)"
           id="g142"><path
             id="path144"
             style="fill:#e12839;fill-opacity:1;fill-rule:nonzero;stroke:none"
             d="m 0,0 -95.07,-54.406 c -0.011,-0.007 -0.018,-0.016 -0.029,-0.022 -1.333,-1.27 -0.118,-2.787 0.389,-3.161 0.094,-0.069 0.425,-0.302 0.462,-0.324 L -9,-108 88.428,-51.428 Z" /></g><g
           transform="translate(835.0805,897.6179)"
           id="g146"><path
             id="path148"
             style="fill:#e12839;fill-opacity:1;fill-rule:nonzero;stroke:none"
             d="m 0,0 -87.714,-50.143 89,-51.143 L 88,-50.857 Z" /></g><g
           transform="translate(948.6518,861.1179)"
           id="g150"><path
             id="path152"
             style="fill:#e12839;fill-opacity:1;fill-rule:nonzero;stroke:none"
             d="M 0,0 102.429,60 14.571,110.071 -87.857,50.929 Z" /></g><g
           transform="translate(938.8305,985.0285)"
           id="g154"><path
             id="path156"
             style="fill:#e12839;fill-opacity:1;fill-rule:nonzero;stroke:none"
             d="m 0,0 -94.621,54.881 c -4.066,2.358 -9.08,2.364 -13.151,0.017 l -95.317,-54.951 100.017,-58.393 z" /></g><g
           transform="translate(810.2231,911.6179)"
           id="g158"><path
             id="path160"
             style="fill:#e12839;fill-opacity:1;fill-rule:nonzero;stroke:none"
             d="M 0,0 -101.286,57.857 -186.857,7.714 -87.429,-49.571 Z" /></g><g
           transform="translate(1074.6908,788.6911)"
           id="g162"><path
             id="path164"
             style="fill:#e12839;fill-opacity:1;fill-rule:nonzero;stroke:none"
             d="M 0,0 -101.684,58.469 1.386,117.641 91.545,65.887 c 0,0 4.567,-2.873 6.469,-7.639 z" /></g><g
           transform="translate(696.0961,846.8928)"
           id="g166"><path
             id="path168"
             style="fill:#e12839;fill-opacity:1;fill-rule:nonzero;stroke:none"
             d="M 0,0 -98.143,-56.571 -188.786,-3 c 0,0 -7.285,3.214 0,7.286 7.286,4.071 88.929,52.5 88.929,52.5 z" /></g><g
           transform="translate(504.9267,849.384)"
           id="g170"><path
             id="path172"
             style="fill:#f6b416;fill-opacity:1;fill-rule:nonzero;stroke:none"
             d="m 0,0 c 0.015,0.015 -2.561,-2.48 1.339,-4.875 3.919,-2.406 91.474,-54.188 91.474,-54.188 v -116.356 l -97.5,56.571 1.535,111.209 c 0.089,2.156 0.227,5.035 2.528,7.299 0.291,0.286 1.45,1.15 1.708,1.304" /></g><path
           id="path174"
           style="fill:#f6b416;fill-opacity:1;fill-rule:nonzero;stroke:none"
           d="m 1774.203,875.689 h -56.488 v 56.488 h 56.488 z" /><path
           id="path176"
           style="fill:#00a1c3;fill-opacity:1;fill-rule:nonzero;stroke:none"
           d="m 1772.143,778.618 h -54.429 v 54.429 h 54.429 z" /><path
           id="path178"
           style="fill:#e12839;fill-opacity:1;fill-rule:nonzero;stroke:none"
           d="m 1774.203,674.791 h -56.488 v 56.488 h 56.488 z" /><path
           id="path180"
           style="fill:#e97973;fill-opacity:1;fill-rule:nonzero;stroke:none"
           d="m 1772.143,580.448 h -54.429 v 54.428 h 54.429 z" /></g></g></g></svg>