<?xml version="1.0" encoding="utf-8"?>
<!-- Generator: Adobe Illustrator 23.0.3, SVG Export Plug-In . SVG Version: 6.00 Build 0)  -->
<svg version="1.1" id="Capa_1" xmlns="http://www.w3.org/2000/svg" xmlns:xlink="http://www.w3.org/1999/xlink" x="0px" y="0px"
	 viewBox="0 0 2453.1 874.29" style="enable-background:new 0 0 2453.1 874.29;" xml:space="preserve">
<style type="text/css">
	.st0{fill:#2D7AA8;}
	.st1{fill:none;stroke:#D8D9DD;stroke-width:0.75;stroke-miterlimit:10;}
	.st2{fill:none;stroke:#850F5B;stroke-width:0.5;stroke-miterlimit:10;}
	.st3{fill:none;stroke:#850F5B;stroke-width:0.75;stroke-miterlimit:10;}
	.st4{fill:#D9E5DE;}
	.st5{fill:none;stroke:#AEADB3;stroke-width:0.75;stroke-miterlimit:10;}
	.st6{fill:none;stroke:#C2C3C9;stroke-width:0.75;stroke-miterlimit:10;}
	.st7{fill:#DD9C30;}
	.st8{fill:#C12C3A;}
	.st9{fill:none;stroke:#EDEEF0;stroke-miterlimit:10;}
</style>
<path class="st0" d="M982.7,382.98c-7.32-3-13.84-2.17-16.21-2.01c-1.54,0.1-2.82,0.52-3.51,0.8l-89.1,38.97
	c0.88-8.21,1.64-14.7,2.14-18.86c1.12-9.3,1.74-13.59,1.29-20.04c-0.38-5.3-0.57-7.94-1.93-11.14
	c-4.27-10.01-14.62-13.8-16.93-14.57c-1.74-0.58-10.18-3.23-19.82,0.32c-2.72,1-9.83,3.62-13.96,10.93
	c-1.81,3.2-2.46,6.25-2.71,8.29l-26.71,171.5c0,0,0.21,24,20.5,28.07c20.29,4.07,29.93-8.29,31.57-10.71c1.64-2.43,3-6.29,3.79-9.29
	s3.79-23.57,3.79-23.57l2.36-18.86c0,0,0.4-3.41,2.94-0.72c2.54,2.69,3.68,3.94,3.68,3.94l66.91,71.17c0,0,6.38,6.11,17.04,6.21
	s18.96-8.46,18.96-8.46s3.32-3.38,5.57-6.86c2.25-3.48,2.46-4.29,3.64-8.25c0.96-5.14,0-11.09,0-11.09s-0.21-4.66-4.82-10.07
	c-4.61-5.41-72.32-76.77-72.32-76.77s-1.45-1.21-0.09-2.05c5.09-1.95,5.86-2.25,5.86-2.25l31.45-13.02l34.36-15.29
	c14.17-6.88,37.29-20.54,25-43.89C995.42,395.41,991.42,386.55,982.7,382.98z"/>
<path class="st0" d="M1085.17,355.12c-18.43-2.15-26.53,14.11-27.84,17.04c-0.12,0.28-0.21,0.55-0.27,0.85
	c-1.84,8.93-33.95,164.5-34.67,169.5c-0.75,5.14-1.39,16.07-1.39,16.07c2.14,11.89,9.21,15.75,9.21,15.75s6.43,6.11,24.64,5.57
	c18.21-0.54,22.18-18.21,22.18-18.21s33.94-167.46,33.94-180.11C1110.96,369.48,1101.22,356.99,1085.17,355.12z"/>
<path class="st0" d="M1300.13,365.19c-45.26-35.33-113.46-16.26-144.71-5.35c-26.43,8.14-22,32.43-22,32.43l44.86,174.99
	c0,0,4.29,17.79,28.29,15.86c0,0,100.29-14.29,121.71-77.14c4.78-14.01,6.21-27.21,7.07-37.07c0.86-9.86-2.87-44.51-8.14-64.29
	C1326.87,403.36,1319.76,380.51,1300.13,365.19z M1280.27,461.28c-1,13-1.22,13.19-3.43,20.53c-2.29,7.59-11.89,18.05-11.89,18.05
	s-16.25,14.96-39.96,20.89c-0.99,0.25-1.29,0-1.29,0l-28.13-113.15c-0.21-0.86,0.29-1.72,1.14-1.96c1.98-0.56,6.08-1.56,13.28-2.75
	c11.71-1.93,33.21-1.71,37.71-0.86c4.5,0.86,23.14,2.64,29.57,29.93C1277.27,431.98,1281.27,448.28,1280.27,461.28z"/>
<path class="st0" d="M1467.13,352.98c-1.29,0-31.92-1.84-45.71,3.71c0,0-22,6.43-32.57,19.43c0,0-14.39,14.04-17.18,33.75
	c-1.6,11.83-1.68,35.54,20.89,56.79c8.14,8.31,35.72,25.66,41.45,29.59c26.26,18.01,19.41,51.94-11.77,22.05
	c-10.88-10.43-21.51-24.53-29.68-25.18c-9.33-0.75-38.14,8.14-30.14,38.71c3.81,12.96,46.25,58.17,85,54
	c6.71-0.14,29.71-2.86,41.71-18.14c2.71-3.14,14.43-16.29,16-39.14c0.29-13.57,0-15,0-15s-1-29.71-22.86-50
	c-3.43-3.43-17.14-15.29-35.43-24.71c-18.29-9.43-25-21.86-14.71-26.43c10.29-4.57,29.86-3.71,29.86-3.71s0.29-0.71,2.57,1.43
	c0,0,8.57,13.43,32.29,5.29c23.71-8.14,14.14-36.43,14.14-36.43S1503.99,356.84,1467.13,352.98z"/>
<path class="st0" d="M1783.1,539.06c-1.16-0.5-2.39-0.82-3.65-0.96c-1.93-0.21-4.34-0.37-15.18,0.6
	c-14.43,1.29-67.14,6.43-67.14,6.43s-3.43,1.29-1-4.86s59.57-135.43,59.57-135.43s14.14-36.71-20-43.86c0,0-4.71-1.14-16.43,0.57
	c-11.71,1.71-92.86,19.43-92.86,19.43s-23.43,3-19.43,30.86c4,27.86,33.71,22.29,33.71,22.29l41.86-9.43c0,0,3.57-1.86,1.86,2.14
	c-1.57,3.66-48.05,118.69-55.88,138.09c-0.95,2.35-1.49,4.84-1.57,7.38c-0.25,7.71,1.58,22.99,18.75,29.38
	c24.85-0.29,133.85-9.57,133.85-9.57s16.23-1.06,21.68-18.89c0.46-1.5,0.67-3.05,0.7-4.61
	C1802.06,562.23,1800.89,546.73,1783.1,539.06z"/>
<path class="st0" d="M1921.7,330.41c0,0-10.86-20.71-54.43-11.29c-10.71,2.29-38.14,9.29-56.43,28.86c-6,7-24,29.57-26.29,61.57
	c-6.71,51.21,10.64,118.93,80.29,135.14c54,10.57,117-49.43,122.57-110.86C1990.85,403.23,1977.13,339.26,1921.7,330.41z
	 M1931.18,421.68c-2.39,17.86-8,34-9.29,35.71c-70.79,109.21-133.14-86.43-32.43-83.86c3.57,8.86,14,10.86,14,10.86
	C1925.66,384.1,1933.87,401.54,1931.18,421.68z"/>
<path class="st0" d="M2193.2,335.26c-23.5-1.43-30.43,15.14-30.43,15.14s-1.79,3.57-1.86,9.29c-0.07,5.71,0.5,86.86,0.5,86.86
	c2.07,2.26-98.92-86.5-117.59-90.46c-15.2-3.23-29.36,5.84-31.84,17.4c0,0-1.71,10.64,0,25.78c1.71,15.14,18,97.71,21.14,106
	c0.57,2,12.86,50,16.57,60.29c3.71,10.29,12,18.29,20.57,18c8.57-0.29,36.5,1.29,34.14-31.93c-1.71-4.5-15.43-52.93-16.29-57.21
	c-0.86-4.29-10.71-43.04-10.71-45.24s1.31-2.01,2.09-1.31s97.34,95.13,97.34,95.13s14.21,9.43,29.86-2.29
	c0.07,0.07,10.14-6.21,11.29-19c-0.07-0.29,0-159.57,0-159.57S2216.7,336.69,2193.2,335.26z"/>
<path class="st0" d="M2398.63,324.84c-1.93-1.5-10.14-6.93-24.07-9.64c-13.93-2.71-23.14-4.5-23.14-4.5l-26.56-4
	c0,0-19.31-2.71-25.01,0c0,0-17.14,3.83-16.71,28.48c-0.21,1.09-40.29,160.73-40.29,160.73s-5.79,27.86,19.5,34.93
	c2.14,0.43,80.79,10.5,80.79,10.5s16.29-1.93,22.29-24c0.21-0.43,5.36-26.14-21-31.07c-2.36-0.43-38.36-6-38.36-6
	s-1.53-0.21-0.13-4.26l9.24-36.56c0,0,0.35-1.15,2.57-0.62c2.22,0.54,31.39,5.65,31.39,5.65s15.86,3.43,25.71-5.68
	c9.86-9.11,17.14-33.96-5.43-46.11c0,0.04-5.45-2.23-10.64-3.39c-5.25-1.18-29.25-5.57-29.25-5.57s-0.36-0.11-0.04-1.79
	c0.32-1.68,4.07-17.32,4.07-17.32s0.19-0.77,0.86-0.66c0.67,0.11,40.49,9.45,40.49,9.45s12.07,2.14,20.36-3.07
	c0.21,0,11.21-6.71,12-20.57C2407.27,349.55,2409.35,334.34,2398.63,324.84z"/>
<path class="st1" d="M1406.1,750.43"/>
<path class="st2" d="M-285.28,304.15"/>
<path class="st3" d="M555.89,364.24"/>
<path class="st3" d="M150.18,180.39"/>
<path class="st3" d="M378.02,844.59"/>
<path class="st3" d="M378.01,733.42"/>
<path class="st3" d="M375.07,704.02"/>
<path class="st3" d="M380.25,704.02"/>
<path class="st3" d="M390.43,406.09"/>
<path class="st3" d="M138.5,472.59"/>
<path class="st3" d="M54.5,420.73"/>
<path class="st3" d="M43.57,260.02"/>
<polygon class="st4" points="502.64,774.8 588.14,725.23 588.14,612.3 502.64,661.37 "/>
<path class="st4" d="M614.29,709.59L706,657.3c0,0,7.82-3.54,8.36-13.82c0-10.29,0-104.89,0-104.89l-100.07,58.29V709.59z"/>
<polygon class="st4" points="714.36,409.59 614.5,468.73 614.5,567.73 714.36,510.3 "/>
<path class="st1" d="M615,323.8l-0.5,115.14l99.86-57.21l0.21-108.43c0,0-0.36-10.57-8.93-15.5c-9.08-5.22-89.21-51.14-89.21-51.14
	l-102.29,58.71L615,323.8z"/>
<path class="st5" d="M712.64,266.27l-97.34,57.37L712.64,266.27z"/>
<polygon class="st4" points="588.14,484.59 502.64,534.95 502.64,632.87 588.14,582.95 "/>
<polygon class="st4" points="589,338.23 502.21,388.37 502.64,503.87 588.14,454.59 "/>
<path class="st6" d="M475.57,550.8 M475.57,648.8 M373.86,608.66 M380.07,607.86"/>
<path class="st4" d="M378.13,576.4l97.1-55.87c0.1-0.06,0.16-0.16,0.16-0.27V405.59c0,0,0-0.47-0.29-1.11l-96.99,53.74L378.13,576.4
	z"/>
<path class="st7" d="M378.13,458.23"/>
<path class="st7" d="M378.15,576.4"/>
<polygon class="st8" points="165.57,724.09 252.46,775.24 252.74,662.4 165.57,611.95 "/>
<polygon class="st8" points="252.57,538.52 166,488.52 166,582.8 252.74,632.66 "/>
<path class="st8" d="M167,337.96c-0.51-0.37-1.72-1.89-0.39-3.16c-0.47,0.28-0.76,0.79-0.76,1.34v118.38l86.88,49.57l-0.03-115.71
	l-85.32-50.13C167.35,338.22,167.1,338.03,167,337.96z"/>
<polygon class="st8" points="51.13,422.14 41.29,416.45 41.29,511.8 138.09,566.93 137.93,472.37 "/>
<path class="st8" d="M40.22,645.93c0,3.72,2.12,7.05,5.21,9.03L138,708.37V595.52l-97.64-56.5L40.22,645.93z"/>
<path class="st8" d="M475.57,676.8l-96.05,55.71c-1.02,0.59-2.17,0.9-3.35,0.9h-0.11c-1.16,0-2.31-0.31-3.31-0.9l-95.47-56.46
	l0.14,112.93l94.03,53.28c2.04,1.15,4.3,1.73,6.57,1.72l0-0.19"/>
<path class="st4" d="M378.02,733.24l0.01,110.73c2.26-0.01,4.52-0.6,6.54-1.76l91.95-53l-0.93-112.67"/>
<line class="st7" x1="378.02" y1="843.79" x2="378.02" y2="843.02"/>
<path class="st3" d="M0,236.87"/>
<path class="st3" d="M21.57,277.09"/>
<g>
	<path class="st4" d="M475.69,550.7v98l-94.84,54.98c-0.84,0.48-2.83,1.42-2.82,0.89c-0.01-1.98,0.09-95.94,0.1-95.91
		c0,0,0.82-0.22,1.73-0.72C380.77,607.43,475.69,550.7,475.69,550.7z"/>
</g>
<path class="st8" d="M378.15,608.65c0,0-1.7,0.71-3.97,0.02c-1.33-0.41-96.69-55.39-96.69-55.39v94.34l98.44,56.7
	c0,0,1.18,0.67,2.76,0.34"/>
<path class="st7" d="M378.11,458.22"/>
<path class="st3" d="M285.84,391.48"/>
<path class="st3" d="M279.57,395.29"/>
<path class="st3" d="M283.97,392.62"/>
<path class="st7" d="M378.02,843.59"/>
<polygon class="st8" points="277.29,400.31 378.11,458.22 378.15,576.4 277.29,516.95 "/>
<path class="st4" d="M615.37,323.67l97.68-58.04c0,0,1.62,3.34,1.91,6.89c0.27,3.34-0.17,109.46-0.17,109.46L614.2,439.62
	L615.37,323.67z"/>
<path class="st5" d="M567,305.66"/>
<g>
	<polygon class="st0" points="488.29,279.52 401.07,329.45 502.21,388.37 589,338.23 	"/>
	<path class="st0" d="M378.13,458.23c-0.17,0.09,97.01-53.74,97.01-53.74c-0.29-0.65-0.88-1.48-2.07-2.18
		c-4.77-2.45-96.28-54.92-99.69-56.87c-0.06-0.04-0.14-0.03-0.2,0c0,0-95.9,54.83-95.9,54.87v0.01L378.13,458.23l-0.02-0.01"/>
	<path class="st0" d="M261.71,280.37l-95.07,54.41c-0.01,0.01-0.02,0.02-0.03,0.02c-1.33,1.27-0.12,2.79,0.39,3.16
		c0.09,0.07,0.43,0.3,0.46,0.32l85.25,50.09l97.43-56.57L261.71,280.37z"/>
	<polygon class="st0" points="375.43,214.95 287.71,265.09 376.71,316.23 463.43,265.8 	"/>
	<polygon class="st0" points="489,251.45 591.43,191.45 503.57,141.37 401.14,200.52 	"/>
	<path class="st0" d="M479.18,127.54l-94.62-54.88c-4.07-2.36-9.08-2.36-13.15-0.02l-95.32,54.95l100.02,58.39L479.18,127.54z"/>
	<polygon class="st0" points="350.57,200.95 249.29,143.09 163.71,193.23 263.14,250.52 	"/>
	<path class="st0" d="M615.04,323.87L513.36,265.4l103.07-59.17l90.16,51.75c0,0,4.57,2.87,6.47,7.64L615.04,323.87z"/>
	<path class="st0" d="M236.44,265.67l-98.14,56.57l-90.64-53.57c0,0-7.29-3.21,0-7.29s88.93-52.5,88.93-52.5L236.44,265.67z"/>
</g>
<path class="st8" d="M45.27,263.18c0.01-0.01-2.56,2.48,1.34,4.88c3.92,2.41,91.47,54.19,91.47,54.19V438.6l-97.5-56.57l1.54-111.21
	c0.09-2.16,0.23-5.03,2.53-7.3c0.29-0.29,1.45-1.15,1.71-1.3"/>
<path class="st9" d="M45.57,265.76"/>
<path class="st9" d="M44.95,263.25"/>
<path class="st9" d="M45.04,263.11"/>
</svg>
